<svg xmlns="http://www.w3.org/2000/svg" xmlns:xlink="http://www.w3.org/1999/xlink" viewBox="0 0 2106 1836" width="2106"
  height="1836" preserveAspectRatio="xMidYMid meet"
  style="width: 100%; height: 100%; transform: translate3d(0px, 0px, 0px); content-visibility: visible;">
  <defs>
    <clipPath id="__lottie_element_275">
      <rect width="2106" height="1836" x="0" y="0" />
    </clipPath>
  </defs>
  <g clip-path="url(#__lottie_element_275)">
    <g transform="matrix(1,0,0,1,141.03399658203125,262.3070068359375)" opacity="1" style="display: block;">
      <g opacity="1" transform="matrix(1,0,0,1,934.7529907226562,584.7880249023438)">
        <path fill="#b0b49f" fill-opacity="1"
          d=" M-745.5800170898438,584.5369873046875 C-745.5800170898438,584.5369873046875 -934.5029907226562,434.1960144042969 -738.5980224609375,228.24899291992188 C-633.1309814453125,117.375 -684.8140258789062,-66.95099639892578 -623.9569702148438,-194.3990020751953 C-437.66400146484375,-584.5369873046875 -19.233999252319336,-266.9460144042969 192.44000244140625,-337.2539978027344 C566.4539794921875,-461.4849853515625 730.218994140625,-152.1280059814453 658.4500122070312,54.750999450683594 C588.3939819335938,256.6919860839844 934.5029907226562,212.74200439453125 697.885986328125,584.5369873046875 C697.885986328125,584.5369873046875 -745.5800170898438,584.5369873046875 -745.5800170898438,584.5369873046875z" />
      </g>
      <g opacity="1" transform="matrix(1,0,0,1,911.9099731445312,1190.470947265625)">
        <path fill="#069747" fill-opacity="1"
          d=" M-860.89599609375,0 C-860.89599609375,14.604999542236328 -848.1209716796875,26.444000244140625 -832.3670043945312,26.444000244140625 C-832.3670043945312,26.444000244140625 832.3679809570312,26.444000244140625 832.3679809570312,26.444000244140625 C848.1240234375,26.444000244140625 860.89599609375,14.604999542236328 860.89599609375,0 C860.89599609375,-14.604999542236328 848.1240234375,-26.444000244140625 832.3679809570312,-26.444000244140625 C832.3679809570312,-26.444000244140625 -832.3670043945312,-26.444000244140625 -832.3670043945312,-26.444000244140625 C-848.1209716796875,-26.444000244140625 -860.89599609375,-14.604999542236328 -860.89599609375,0z" />
      </g>
    </g>
    <g transform="matrix(1,0,0,1,278.06695556640625,902.7550048828125)" opacity="1" style="display: block;">
      <g opacity="1" transform="matrix(1,0,0,1,230,166)">
        <path fill="#ec9e0b" fill-opacity="1"
          d=" M-16.33099937438965,-166.74600219726562 C-16.33099937438965,-166.74600219726562 15.491000175476074,-166.74600219726562 15.491000175476074,-166.74600219726562 C24.267000198364258,-166.74600219726562 32.207000732421875,-161.5399932861328 35.70800018310547,-153.4929962158203 C35.70800018310547,-153.4929962158203 161.60400390625,135.9040069580078 161.60400390625,135.9040069580078 C167.93800354003906,150.46499633789062 157.26600646972656,166.74600219726562 141.38699340820312,166.74600219726562 C141.38699340820312,166.74600219726562 106.9540023803711,166.74600219726562 106.9540023803711,166.74600219726562 C97.98500061035156,166.74600219726562 89.91000366210938,161.31199645996094 86.53099822998047,153.00399780273438 C86.53099822998047,153.00399780273438 68.9739990234375,109.83200073242188 68.9739990234375,109.83200073242188 C65.59600067138672,101.52300262451172 57.520999908447266,96.08999633789062 48.551998138427734,96.08999633789062 C48.551998138427734,96.08999633789062 -51.12900161743164,96.08999633789062 -51.12900161743164,96.08999633789062 C-60.189998626708984,96.08999633789062 -68.3290023803711,101.63500213623047 -71.64600372314453,110.06800079345703 C-71.64600372314453,110.06800079345703 -88.44100189208984,152.7689971923828 -88.44100189208984,152.7689971923828 C-91.75800323486328,161.2010040283203 -99.89700317382812,166.74600219726562 -108.95800018310547,166.74600219726562 C-108.95800018310547,166.74600219726562 -141.41000366210938,166.74600219726562 -141.41000366210938,166.74600219726562 C-157.26699829101562,166.74600219726562 -167.93800354003906,150.50799560546875 -161.64700317382812,135.95199584960938 C-161.64700317382812,135.95199584960938 -36.569000244140625,-153.44500732421875 -36.569000244140625,-153.44500732421875 C-33.08000183105469,-161.51800537109375 -25.125999450683594,-166.74600219726562 -16.33099937438965,-166.74600219726562z M-6.973999977111816,-58.417999267578125 C-6.973999977111816,-58.417999267578125 -40.525001525878906,27.40999984741211 -40.525001525878906,27.40999984741211 C-41.74700164794922,30.53700065612793 -39.441001892089844,33.915000915527344 -36.08300018310547,33.915000915527344 C-36.08300018310547,33.915000915527344 31.408000946044922,33.915000915527344 31.408000946044922,33.915000915527344 C34.77299880981445,33.915000915527344 37.08000183105469,30.52199935913086 35.84199905395508,27.392000198364258 C35.84199905395508,27.392000198364258 1.9019999504089355,-58.433998107910156 1.9019999504089355,-58.433998107910156 C0.3089999854564667,-62.4630012512207 -5.396999835968018,-62.452999114990234 -6.973999977111816,-58.417999267578125z" />
      </g>
      <g opacity="1" transform="matrix(1,0,0,1,550,171)">
        <path fill="#ffffff" fill-opacity="1"
          d=" M140.60400390625,33.91400146484375 C140.60400390625,53.698001861572266 137.61599731445312,71.91500091552734 131.6540069580078,88.55500030517578 C125.68499755859375,105.2030029296875 116.81600189208984,119.64299774169922 105.04000091552734,131.88999938964844 C93.26399993896484,144.13699340820312 78.58100128173828,153.718994140625 60.99800109863281,160.6219940185547 C43.40800094604492,167.5260009765625 23.15399932861328,170.98399353027344 0.23499999940395355,170.98399353027344 C-23.006999969482422,170.98399353027344 -43.41699981689453,167.5260009765625 -60.999000549316406,160.6219940185547 C-78.58899688720703,153.718994140625 -93.26499938964844,144.13699340820312 -105.04100036621094,131.88999938964844 C-116.81600189208984,119.64299774169922 -125.69300079345703,105.2030029296875 -131.6540069580078,88.55500030517578 C-137.6230010986328,71.91500091552734 -140.60400390625,53.698001861572266 -140.60400390625,33.91400146484375 C-140.60400390625,33.91400146484375 -140.60400390625,-143.2239990234375 -140.60400390625,-143.2239990234375 C-140.60400390625,-158.55599975585938 -128.1750030517578,-170.98399353027344 -112.84300231933594,-170.98399353027344 C-112.84300231933594,-170.98399353027344 -94.88300323486328,-170.98399353027344 -94.88300323486328,-170.98399353027344 C-79.5510025024414,-170.98399353027344 -67.12300109863281,-158.55599975585938 -67.12300109863281,-143.2239990234375 C-67.12300109863281,-143.2239990234375 -67.12300109863281,31.089000701904297 -67.12300109863281,31.089000701904297 C-67.12300109863281,41.45199966430664 -65.4739990234375,51.034000396728516 -62.176998138427734,59.821998596191406 C-58.87900161743164,68.61699676513672 -54.25,76.23500061035156 -48.28099822998047,82.66699981689453 C-42.31999969482422,89.10700225830078 -35.17300033569336,94.13400268554688 -26.849000930786133,97.73999786376953 C-18.531999588012695,101.35399627685547 -9.501999855041504,103.15599822998047 0.23499999940395355,103.15599822998047 C9.96500015258789,103.15599822998047 18.915000915527344,101.35399627685547 27.083999633789062,97.73999786376953 C35.24599838256836,94.13400268554688 42.3120002746582,89.10700225830078 48.28099822998047,82.66699981689453 C54.24300003051758,76.23500061035156 58.880001068115234,68.61699676513672 62.176998138427734,59.821998596191406 C65.4739990234375,51.034000396728516 67.12200164794922,41.45199966430664 67.12200164794922,31.089000701904297 C67.12200164794922,31.089000701904297 67.12200164794922,-143.2239990234375 67.12200164794922,-143.2239990234375 C67.12200164794922,-158.55599975585938 79.552001953125,-170.98399353027344 94.88300323486328,-170.98399353027344 C94.88300323486328,-170.98399353027344 112.84200286865234,-170.98399353027344 112.84200286865234,-170.98399353027344 C128.1739959716797,-170.98399353027344 140.60400390625,-158.55599975585938 140.60400390625,-143.2239990234375 C140.60400390625,-143.2239990234375 140.60400390625,33.91400146484375 140.60400390625,33.91400146484375z" />
      </g>
      <g opacity="1" transform="matrix(1,0,0,1,879.47802734375,157.1168670654297)">
        <path fill="rgb(66,78,161)" fill-opacity="1"
          d=" M-153.79299926757812,-144.54200744628906 C-153.79299926757812,-156.80499267578125 -143.8520050048828,-166.7449951171875 -131.58900451660156,-166.7449951171875 C-131.58900451660156,-166.7449951171875 -43.571998596191406,-166.7449951171875 -43.571998596191406,-166.7449951171875 C-16.884000778198242,-166.7449951171875 8.47700023651123,-163.75900268554688 32.5,-157.7969970703125 C56.52299880981445,-151.8280029296875 77.48400115966797,-142.17100524902344 95.38300323486328,-128.8280029296875 C113.28199768066406,-115.47699737548828 127.48600006103516,-98.12999725341797 138.01100158691406,-76.77999877929688 C148.5290069580078,-55.42100143432617 153.79200744628906,-29.513999938964844 153.79200744628906,0.9409999847412109 C153.79200744628906,27.95199966430664 148.6840057373047,51.73899841308594 138.48300170898438,72.302001953125 C128.2740020751953,92.87300109863281 114.53299713134766,110.14800262451172 97.26699829101562,124.11699676513672 C79.99400329589844,138.093994140625 60.055999755859375,148.6909942626953 37.44599914550781,155.91099548339844 C14.836999893188477,163.13900756835938 -8.876999855041504,166.7449951171875 -33.67900085449219,166.7449951171875 C-33.67900085449219,166.7449951171875 -131.58900451660156,166.7449951171875 -131.58900451660156,166.7449951171875 C-143.8520050048828,166.7449951171875 -153.79299926757812,156.80299377441406 -153.79299926757812,144.5399932861328 C-153.79299926757812,144.5399932861328 -153.79299926757812,-144.54200744628906 -153.79299926757812,-144.54200744628906z M-80.31199645996094,76.71199798583984 C-80.31199645996094,88.9749984741211 -70.37100219726562,98.91699981689453 -58.108001708984375,98.91699981689453 C-58.108001708984375,98.91699981689453 -42.15800094604492,98.91699981689453 -42.15800094604492,98.91699981689453 C-25.201000213623047,98.91699981689453 -9.42199993133545,97.19300079345703 5.179999828338623,93.73500061035156 C19.783000946044922,90.28199768066406 32.41899871826172,84.54900360107422 43.0989990234375,76.54199981689453 C53.77000045776367,68.53399658203125 62.17599868774414,58.018001556396484 68.2979965209961,44.98400115966797 C74.4219970703125,31.957000732421875 77.48400115966797,16.013999938964844 77.48400115966797,-2.8269999027252197 C77.48400115966797,-19.152000427246094 74.4219970703125,-33.36399841308594 68.2979965209961,-45.45500183105469 C62.17599868774414,-57.54100036621094 53.93199920654297,-67.51399993896484 43.56999969482422,-75.36599731445312 C33.207000732421875,-83.21199798583984 21.034000396728516,-89.0999984741211 7.065000057220459,-93.02999877929688 C-6.910999774932861,-96.9530029296875 -21.594999313354492,-98.91799926757812 -36.97800064086914,-98.91799926757812 C-36.97800064086914,-98.91799926757812 -58.108001708984375,-98.91799926757812 -58.108001708984375,-98.91799926757812 C-70.37100219726562,-98.91799926757812 -80.31199645996094,-88.97699737548828 -80.31199645996094,-76.71399688720703 C-80.31199645996094,-76.71399688720703 -80.31199645996094,76.71199798583984 -80.31199645996094,76.71199798583984z" />
      </g>
      <g opacity="1" transform="matrix(1,0,0,1,1100,146)">
        <path fill="#ffffff" fill-opacity="1"
          d=" M-8.979000091552734,-166.74600219726562 C-8.979000091552734,-166.74600219726562 8.979000091552734,-166.74600219726562 8.979000091552734,-166.74600219726562 C24.31100082397461,-166.74600219726562 36.7400016784668,-154.3159942626953 36.7400016784668,-138.98399353027344 C36.7400016784668,-138.98399353027344 36.7400016784668,138.98500061035156 36.7400016784668,138.98500061035156 C36.7400016784668,154.31700134277344 24.31100082397461,166.74600219726562 8.979000091552734,166.74600219726562 C8.979000091552734,166.74600219726562 -8.979000091552734,166.74600219726562 -8.979000091552734,166.74600219726562 C-24.31100082397461,166.74600219726562 -36.74100112915039,154.31700134277344 -36.74100112915039,138.98500061035156 C-36.74100112915039,138.98500061035156 -36.74100112915039,-138.98399353027344 -36.74100112915039,-138.98399353027344 C-36.74100112915039,-154.3159942626953 -24.31100082397461,-166.74600219726562 -8.979000091552734,-166.74600219726562z" />
      </g>
      <g opacity="1" transform="matrix(1,0,0,1,1300,166)">
        <path fill="#228844" fill-opacity="1"
          d=" M-53.75400161743164,-101.74400329589844 C-53.75400161743164,-101.74400329589844 -114.875,-101.74400329589844 -114.875,-101.74400329589844 C-124.27200317382812,-101.74400329589844 -131.88800048828125,-109.36100006103516 -131.88800048828125,-118.75800323486328 C-131.88800048828125,-118.75800323486328 -131.88800048828125,-149.73199462890625 -131.88800048828125,-149.73199462890625 C-131.88800048828125,-159.12899780273438 -124.27200317382812,-166.7449951171875 -114.875,-166.7449951171875 C-114.875,-166.7449951171875 114.875,-166.7449951171875 114.875,-166.7449951171875 C124.27200317382812,-166.7449951171875 131.88900756835938,-159.12899780273438 131.88900756835938,-149.73199462890625 C131.88900756835938,-149.73199462890625 131.88900756835938,-118.75800323486328 131.88900756835938,-118.75800323486328 C131.88900756835938,-109.36100006103516 124.27200317382812,-101.74400329589844 114.875,-101.74400329589844 C114.875,-101.74400329589844 53.755001068115234,-101.74400329589844 53.755001068115234,-101.74400329589844 C44.35900115966797,-101.74400329589844 36.74100112915039,-94.1259994506836 36.74100112915039,-84.72899627685547 C36.74100112915039,-84.72899627685547 36.74100112915039,149.73199462890625 36.74100112915039,149.73199462890625 C36.74100112915039,159.1280059814453 29.124000549316406,166.7449951171875 19.726999282836914,166.7449951171875 C19.726999282836914,166.7449951171875 -19.72599983215332,166.7449951171875 -19.72599983215332,166.7449951171875 C-29.12299919128418,166.7449951171875 -36.7400016784668,159.1280059814453 -36.7400016784668,149.73199462890625 C-36.7400016784668,149.73199462890625 -36.7400016784668,-84.72899627685547 -36.7400016784668,-84.72899627685547 C-36.7400016784668,-94.1259994506836 -44.356998443603516,-101.74400329589844 -53.75400161743164,-101.74400329589844z" />
      </g>
    </g>
    <g transform="matrix(0.9998513460159302,-0.01724148914217949,0.01724148914217949,0.9998513460159302,1700,1000)"
      opacity="1" style="display: block;">
      <g opacity="1" transform="matrix(1,0,0,1,78.46700286865234,66.81900024414062)">
        <path fill="rgb(246,26,85)" fill-opacity="1"
          d=" M13.968000411987305,-45.18600082397461 C13.968000411987305,-45.18600082397461 -15.668999671936035,39.111000061035156 -15.668999671936035,39.111000061035156 C-15.76099967956543,39.374000549316406 -15.614999771118164,39.66600036621094 -15.340999603271484,39.762001037597656 C-14.347000122070312,40.11199951171875 -13.814000129699707,41.17300033569336 -14.151000022888184,42.13199996948242 C-14.151000022888184,42.13199996948242 -16.996999740600586,50.22600173950195 -16.996999740600586,50.22600173950195 C-17.6299991607666,52.027000427246094 -19.658000946044922,52.95500183105469 -21.525999069213867,52.29800033569336 C-23.402999877929688,51.63800048828125 -24.402000427246094,49.630001068115234 -23.75200080871582,47.82500076293945 C-23.75200080871582,47.82500076293945 -20.229000091552734,38.04399871826172 -20.229000091552734,38.04399871826172 C-20.229000091552734,38.04399871826172 10.432000160217285,-49.16899871826172 10.432000160217285,-49.16899871826172 C11.310999870300293,-51.667999267578125 14.125,-52.95500183105469 16.715999603271484,-52.04399871826172 C16.715999603271484,-52.04399871826172 24.400999069213867,-49.34199905395508 24.400999069213867,-49.34199905395508 C24.400999069213867,-49.34199905395508 22.809999465942383,-44.81800079345703 22.809999465942383,-44.81800079345703 C22.809999465942383,-44.81800079345703 17.354000091552734,-46.736000061035156 17.354000091552734,-46.736000061035156 C15.956999778747559,-47.22700119018555 14.442000389099121,-46.53300094604492 13.968000411987305,-45.18600082397461z" />
      </g>
      <g opacity="1" transform="matrix(1,0,0,1,13.651000022888184,312.3169860839844)">
        <path fill="rgb(246,173,2)" fill-opacity="1"
          d=" M13.401000022888184,-12.909000396728516 C13.401000022888184,-12.909000396728516 -5.980000019073486,-19.722999572753906 -5.980000019073486,-19.722999572753906 C-5.980000019073486,-19.722999572753906 -13.255999565124512,15.086000442504883 -13.255999565124512,15.086000442504883 C-13.401000022888184,15.779999732971191 -13.010000228881836,16.474000930786133 -12.340999603271484,16.708999633789062 C-12.340999603271484,16.708999633789062 -4.436999797821045,19.488000869750977 -4.436999797821045,19.488000869750977 C-3.7679998874664307,19.722999572753906 -3.0290000438690186,19.427000045776367 -2.7070000171661377,18.795000076293945 C-2.7070000171661377,18.795000076293945 13.401000022888184,-12.909000396728516 13.401000022888184,-12.909000396728516z" />
      </g>
      <g opacity="1" transform="matrix(1,0,0,1,4.833000183105469,335.12200927734375)">
        <path fill="rgb(247,49,63)" fill-opacity="1"
          d=" M4.3979997634887695,-3.259999990463257 C4.3979997634887695,-3.259999990463257 -3.934000015258789,-6.189000129699707 -3.934000015258789,-6.189000129699707 C-3.934000015258789,-6.189000129699707 -4.375999927520752,4.7769999504089355 -4.375999927520752,4.7769999504089355 C-4.3979997634887695,5.326000213623047 -4.059999942779541,5.824999809265137 -3.5409998893737793,6.006999969482422 C-3.0230000019073486,6.190000057220459 -2.446000099182129,6.01200008392334 -2.119999885559082,5.570000171661377 C-2.119999885559082,5.570000171661377 4.3979997634887695,-3.259999990463257 4.3979997634887695,-3.259999990463257z" />
      </g>
      <g opacity="1" transform="matrix(1,0,0,1,44.58700180053711,223.1580047607422)">
        <path fill="rgb(66,78,161)" fill-opacity="1"
          d=" M37.86399841308594,-67.13999938964844 C37.86399841308594,-67.13999938964844 10.331000328063965,-76.81999969482422 10.331000328063965,-76.81999969482422 C10.331000328063965,-76.81999969482422 -15.383000373840332,-3.678999900817871 -15.383000373840332,-3.678999900817871 C-15.383000373840332,-3.678999900817871 -37.6609992980957,68.23400115966797 -37.6609992980957,68.23400115966797 C-37.862998962402344,68.88700103759766 -37.51599884033203,69.58499908447266 -36.87200164794922,69.81600189208984 C-36.87200164794922,69.81600189208984 -17.996999740600586,76.58699798583984 -17.996999740600586,76.58699798583984 C-17.347999572753906,76.81999969482422 -16.631999969482422,76.49700164794922 -16.378000259399414,75.85600280761719 C-16.378000259399414,75.85600280761719 7.289000034332275,16.257999420166016 7.289000034332275,16.257999420166016 C7.289000034332275,16.257999420166016 37.86399841308594,-67.13999938964844 37.86399841308594,-67.13999938964844z" />
      </g>
      <g opacity="1" transform="matrix(1,0,0,1,90.06700134277344,86.4260025024414)">
        <path fill="rgb(66,78,161)" fill-opacity="1"
          d=" M-5.8520002365112305,69.3479995727539 C-5.8520002365112305,69.3479995727539 -35.73899841308594,58.840999603271484 -35.73899841308594,58.840999603271484 C-35.73899841308594,58.840999603271484 -12.86400032043457,-6.2230000495910645 -12.86400032043457,-6.2230000495910645 C-12.86400032043457,-6.2230000495910645 12.642999649047852,-69.3479995727539 12.642999649047852,-69.3479995727539 C12.642999649047852,-69.3479995727539 35.73899841308594,-61.362998962402344 35.73899841308594,-61.362998962402344 C35.73899841308594,-61.362998962402344 19.141000747680664,-5.616000175476074 19.141000747680664,-5.616000175476074 C19.141000747680664,-5.616000175476074 -5.8520002365112305,69.3479995727539 -5.8520002365112305,69.3479995727539z" />
      </g>
      <g opacity="1" transform="matrix(1,0,0,1,71.02300262451172,145.39300537109375)">
        <path fill="rgb(246,173,2)" fill-opacity="1"
          d=" M11.954000473022461,-4.2870001792907715 C11.954000473022461,-4.2870001792907715 -6.640999794006348,-10.824000358581543 -6.640999794006348,-10.824000358581543 C-10.383999824523926,-12.140999794006348 -14.486000061035156,-10.17199993133545 -15.802000045776367,-6.427999973297119 C-15.802000045776367,-6.427999973297119 -16.347999572753906,-4.874000072479248 -16.347999572753906,-4.874000072479248 C-17.665000915527344,-1.13100004196167 -15.696999549865723,2.9719998836517334 -11.95300006866455,4.288000106811523 C-11.95300006866455,4.288000106811523 6.640999794006348,10.824000358581543 6.640999794006348,10.824000358581543 C10.385000228881836,12.140000343322754 14.486000061035156,10.17199993133545 15.802000045776367,6.428999900817871 C15.802000045776367,6.428999900817871 16.349000930786133,4.874000072479248 16.349000930786133,4.874000072479248 C17.665000915527344,1.13100004196167 15.696999549865723,-2.9709999561309814 11.954000473022461,-4.2870001792907715z" />
      </g>
      <g opacity="1" transform="matrix(1,0,0,1,118.46900177001953,8.130999565124512)">
        <path fill="rgb(246,26,85)" fill-opacity="1"
          d=" M3.3499999046325684,-5.9720001220703125 C3.3499999046325684,-5.9720001220703125 1.7549999952316284,-6.5320000648498535 1.7549999952316284,-6.5320000648498535 C-2.0810000896453857,-7.88100004196167 -6.284999847412109,-5.864999771118164 -7.632999897003174,-2.0280001163482666 C-7.632999897003174,-2.0280001163482666 -9.20199966430664,2.437000036239624 -9.20199966430664,2.437000036239624 C-9.20199966430664,2.437000036239624 6.2829999923706055,7.88100004196167 6.2829999923706055,7.88100004196167 C6.2829999923706055,7.88100004196167 7.853000164031982,3.4170000553131104 7.853000164031982,3.4170000553131104 C9.20199966430664,-0.41999998688697815 7.185999870300293,-4.623000144958496 3.3499999046325684,-5.9720001220703125z" />
      </g>
      <g opacity="1" transform="matrix(1,0,0,1,115.0790023803711,17.701000213623047)">
        <path fill="rgb(246,173,2)" fill-opacity="1"
          d=" M10.17300033569336,-1.5130000114440918 C10.17300033569336,-1.5130000114440918 -6.039000034332275,-7.2129998207092285 -6.039000034332275,-7.2129998207092285 C-7.531000137329102,-7.736999988555908 -9.182999610900879,-7.118000030517578 -9.96399974822998,-5.74399995803833 C-9.96399974822998,-5.74399995803833 -12.197999954223633,-1.809000015258789 -12.197999954223633,-1.809000015258789 C-12.5649995803833,-1.1629999876022339 -12.258000373840332,-0.34299999475479126 -11.557000160217285,-0.09600000083446503 C-11.557000160217285,-0.09600000083446503 10.02299976348877,7.491000175476074 10.02299976348877,7.491000175476074 C10.722999572753906,7.736999988555908 11.477999687194824,7.289999961853027 11.595999717712402,6.556000232696533 C11.595999717712402,6.556000232696533 12.3149995803833,2.0889999866485596 12.3149995803833,2.0889999866485596 C12.565999984741211,0.527999997138977 11.663999557495117,-0.9890000224113464 10.17300033569336,-1.5130000114440918z" />
      </g>
    </g>
    <g transform="matrix(0.9753085970878601,-0.07452603429555893,0.07452603429555893,0.9753085970878601,1400,600)"
      opacity="1" style="display: block;">
      <g opacity="1" transform="matrix(1,0,0,1,74.78500366210938,87.25599670410156)">
        <path fill="rgb(198,192,182)" fill-opacity="1"
          d=" M24.746999740600586,80.8010025024414 C23.60300064086914,84.05500030517578 20.03700065612793,85.76699829101562 16.781999588012695,84.62200164794922 C16.781999588012695,84.62200164794922 -66.0469970703125,55.500999450683594 -66.0469970703125,55.500999450683594 C-69.3010025024414,54.356998443603516 -71.01100158691406,50.79100036621094 -69.86699676513672,47.5369987487793 C-69.86699676513672,47.5369987487793 -24.746000289916992,-80.802001953125 -24.746000289916992,-80.802001953125 C-23.601999282836914,-84.05599975585938 -20.03700065612793,-85.76699829101562 -16.783000946044922,-84.62300109863281 C-16.783000946044922,-84.62300109863281 66.0469970703125,-55.50199890136719 66.0469970703125,-55.50199890136719 C69.302001953125,-54.358001708984375 71.01200103759766,-50.79199981689453 69.86799621582031,-47.53799819946289 C69.86799621582031,-47.53799819946289 24.746999740600586,80.8010025024414 24.746999740600586,80.8010025024414z" />
      </g>
      <g opacity="1" transform="matrix(1,0,0,1,71.26200103759766,86.01699829101562)">
        <path fill="rgb(231,230,224)" fill-opacity="1"
          d=" M24.746999740600586,80.802001953125 C23.60300064086914,84.05599975585938 20.035999298095703,85.76699829101562 16.783000946044922,84.62300109863281 C16.783000946044922,84.62300109863281 -66.0479965209961,55.50199890136719 -66.0479965209961,55.50199890136719 C-69.302001953125,54.358001708984375 -71.01200103759766,50.79199981689453 -69.86799621582031,47.53799819946289 C-69.86799621582031,47.53799819946289 -24.74799919128418,-80.8010025024414 -24.74799919128418,-80.8010025024414 C-23.604000091552734,-84.05500030517578 -20.038000106811523,-85.76699829101562 -16.783000946044922,-84.62200164794922 C-16.783000946044922,-84.62200164794922 66.0469970703125,-55.500999450683594 66.0469970703125,-55.500999450683594 C69.30000305175781,-54.358001708984375 71.01200103759766,-50.79100036621094 69.86799621582031,-47.5369987487793 C69.86799621582031,-47.5369987487793 24.746999740600586,80.802001953125 24.746999740600586,80.802001953125z" />
      </g>
      <g opacity="1" transform="matrix(1,0,0,1,90.02899932861328,38.69900131225586)">
        <path fill="rgb(91,101,173)" fill-opacity="1"
          d=" M33.5880012512207,21.268999099731445 C33.5880012512207,21.268999099731445 -39.507999420166016,-4.429999828338623 -39.507999420166016,-4.429999828338623 C-39.507999420166016,-4.429999828338623 -33.58700180053711,-21.268999099731445 -33.58700180053711,-21.268999099731445 C-33.58700180053711,-21.268999099731445 39.507999420166016,4.429999828338623 39.507999420166016,4.429999828338623 C39.507999420166016,4.429999828338623 33.5880012512207,21.268999099731445 33.5880012512207,21.268999099731445z" />
      </g>
      <g opacity="1" transform="matrix(1,0,0,1,89.51200103759766,37.750999450683594)">
        <path fill="#000000" fill-opacity="1"
          d=" M33.06999969482422,20.31999969482422 C33.06999969482422,20.31999969482422 -38.5099983215332,-4.84499979019165 -38.5099983215332,-4.84499979019165 C-38.5099983215332,-4.84499979019165 -33.06999969482422,-20.31999969482422 -33.06999969482422,-20.31999969482422 C-33.06999969482422,-20.31999969482422 38.5099983215332,4.8460001945495605 38.5099983215332,4.8460001945495605 C38.5099983215332,4.8460001945495605 33.06999969482422,20.31999969482422 33.06999969482422,20.31999969482422z" />
      </g>
      <g opacity="1" transform="matrix(1,0,0,1,47.917999267578125,62.85300064086914)">
        <path fill="rgb(207,35,51)" fill-opacity="1"
          d=" M5.665999889373779,7.747000217437744 C5.408999919891357,8.479000091552734 4.60699987411499,8.86299991607666 3.875999927520752,8.605999946594238 C3.875999927520752,8.605999946594238 -8.406999588012695,4.288000106811523 -8.406999588012695,4.288000106811523 C-9.140000343322754,4.03000020980835 -9.52400016784668,3.2290000915527344 -9.267000198364258,2.496999979019165 C-9.267000198364258,2.496999979019165 -5.665999889373779,-7.744999885559082 -5.665999889373779,-7.744999885559082 C-5.4079999923706055,-8.477999687194824 -4.60699987411499,-8.86299991607666 -3.874000072479248,-8.604999542236328 C-3.874000072479248,-8.604999542236328 8.409000396728516,-4.2870001792907715 8.409000396728516,-4.2870001792907715 C9.138999938964844,-4.03000020980835 9.52400016784668,-3.2279999256134033 9.267000198364258,-2.494999885559082 C9.267000198364258,-2.494999885559082 5.665999889373779,7.747000217437744 5.665999889373779,7.747000217437744z" />
      </g>
      <g opacity="1" transform="matrix(1,0,0,1,47.17399978637695,61.66699981689453)">
        <path fill="rgb(247,49,63)" fill-opacity="1"
          d=" M5.666999816894531,7.745999813079834 C5.409999847412109,8.47700023651123 4.605999946594238,8.86299991607666 3.874000072479248,8.605999946594238 C3.874000072479248,8.605999946594238 -8.407999992370605,4.288000106811523 -8.407999992370605,4.288000106811523 C-9.140000343322754,4.03000020980835 -9.524999618530273,3.2269999980926514 -9.267999649047852,2.496000051498413 C-9.267999649047852,2.496000051498413 -5.665999889373779,-7.745999813079834 -5.665999889373779,-7.745999813079834 C-5.408999919891357,-8.477999687194824 -4.60699987411499,-8.86299991607666 -3.875999927520752,-8.605999946594238 C-3.875999927520752,-8.605999946594238 8.407999992370605,-4.2870001792907715 8.407999992370605,-4.2870001792907715 C9.140000343322754,-4.03000020980835 9.524999618530273,-3.2279999256134033 9.267999649047852,-2.496000051498413 C9.267999649047852,-2.496000051498413 5.666999816894531,7.745999813079834 5.666999816894531,7.745999813079834z" />
      </g>
      <g opacity="1" transform="matrix(1,0,0,1,67.73899841308594,69.8219985961914)">
        <path fill="rgb(207,35,51)" fill-opacity="1"
          d=" M5.665999889373779,7.747000217437744 C5.408999919891357,8.479000091552734 4.60699987411499,8.86299991607666 3.875,8.605999946594238 C3.875,8.605999946594238 -8.407999992370605,4.2870001792907715 -8.407999992370605,4.2870001792907715 C-9.140000343322754,4.03000020980835 -9.524999618530273,3.2290000915527344 -9.267000198364258,2.496999979019165 C-9.267000198364258,2.496999979019165 -5.665999889373779,-7.744999885559082 -5.665999889373779,-7.744999885559082 C-5.408999919891357,-8.477999687194824 -4.60699987411499,-8.86299991607666 -3.875,-8.605999946594238 C-3.875,-8.605999946594238 8.407999992370605,-4.2870001792907715 8.407999992370605,-4.2870001792907715 C9.140000343322754,-4.03000020980835 9.524999618530273,-3.2279999256134033 9.267000198364258,-2.494999885559082 C9.267000198364258,-2.494999885559082 5.665999889373779,7.747000217437744 5.665999889373779,7.747000217437744z" />
      </g>
      <g opacity="1" transform="matrix(1,0,0,1,66.99500274658203,68.63600158691406)">
        <path fill="rgb(247,49,63)" fill-opacity="1"
          d=" M5.665999889373779,7.744999885559082 C5.408999919891357,8.47599983215332 4.60699987411499,8.86299991607666 3.875999927520752,8.605999946594238 C3.875999927520752,8.605999946594238 -8.407999992370605,4.288000106811523 -8.407999992370605,4.288000106811523 C-9.138999938964844,4.031000137329102 -9.52400016784668,3.2260000705718994 -9.267000198364258,2.494999885559082 C-9.267000198364258,2.494999885559082 -5.666999816894531,-7.747000217437744 -5.666999816894531,-7.747000217437744 C-5.408999919891357,-8.479000091552734 -4.605999946594238,-8.86299991607666 -3.875,-8.605999946594238 C-3.875,-8.605999946594238 8.409000396728516,-4.288000106811523 8.409000396728516,-4.288000106811523 C9.140000343322754,-4.031000137329102 9.52400016784668,-3.2279999256134033 9.267000198364258,-2.496999979019165 C9.267000198364258,-2.496999979019165 5.665999889373779,7.744999885559082 5.665999889373779,7.744999885559082z" />
      </g>
      <g opacity="1" transform="matrix(1,0,0,1,87.55999755859375,76.79000091552734)">
        <path fill="rgb(91,101,173)" fill-opacity="1"
          d=" M5.665999889373779,7.747000217437744 C5.408999919891357,8.479000091552734 4.605999946594238,8.86299991607666 3.875999927520752,8.605999946594238 C3.875999927520752,8.605999946594238 -8.406999588012695,4.288000106811523 -8.406999588012695,4.288000106811523 C-9.138999938964844,4.03000020980835 -9.52400016784668,3.2290000915527344 -9.267000198364258,2.496999979019165 C-9.267000198364258,2.496999979019165 -5.665999889373779,-7.744999885559082 -5.665999889373779,-7.744999885559082 C-5.4079999923706055,-8.477999687194824 -4.605999946594238,-8.86299991607666 -3.874000072479248,-8.604999542236328 C-3.874000072479248,-8.604999542236328 8.409000396728516,-4.2870001792907715 8.409000396728516,-4.2870001792907715 C9.138999938964844,-4.03000020980835 9.52400016784668,-3.2279999256134033 9.267000198364258,-2.494999885559082 C9.267000198364258,-2.494999885559082 5.665999889373779,7.747000217437744 5.665999889373779,7.747000217437744z" />
      </g>
      <g opacity="1" transform="matrix(1,0,0,1,86.81600189208984,75.6050033569336)">
        <path fill="#0e8c58" fill-opacity="1"
          d=" M5.666999816894531,7.745999813079834 C5.409999847412109,8.47700023651123 4.60699987411499,8.86299991607666 3.874000072479248,8.605999946594238 C3.874000072479248,8.605999946594238 -8.409000396728516,4.2870001792907715 -8.409000396728516,4.2870001792907715 C-9.140000343322754,4.03000020980835 -9.524999618530273,3.2269999980926514 -9.267999649047852,2.496000051498413 C-9.267999649047852,2.496000051498413 -5.665999889373779,-7.745999813079834 -5.665999889373779,-7.745999813079834 C-5.408999919891357,-8.477999687194824 -4.607999801635742,-8.86299991607666 -3.877000093460083,-8.605999946594238 C-3.877000093460083,-8.605999946594238 8.407999992370605,-4.2870001792907715 8.407999992370605,-4.2870001792907715 C9.140999794006348,-4.03000020980835 9.524999618530273,-3.2269999980926514 9.267999649047852,-2.496000051498413 C9.267999649047852,-2.496000051498413 5.666999816894531,7.745999813079834 5.666999816894531,7.745999813079834z" />
      </g>
      <g opacity="1" transform="matrix(1,0,0,1,107.38099670410156,83.75900268554688)">
        <path fill="rgb(91,101,173)" fill-opacity="1"
          d=" M5.665999889373779,7.747000217437744 C5.408999919891357,8.479000091552734 4.607999801635742,8.86299991607666 3.875999927520752,8.605999946594238 C3.875999927520752,8.605999946594238 -8.407999992370605,4.288000106811523 -8.407999992370605,4.288000106811523 C-9.140000343322754,4.03000020980835 -9.52299976348877,3.2290000915527344 -9.265999794006348,2.496999979019165 C-9.265999794006348,2.496999979019165 -5.664999961853027,-7.744999885559082 -5.664999961853027,-7.744999885559082 C-5.4070000648498535,-8.47700023651123 -4.605999946594238,-8.86299991607666 -3.874000072479248,-8.604999542236328 C-3.874000072479248,-8.604999542236328 8.409000396728516,-4.2870001792907715 8.409000396728516,-4.2870001792907715 C9.140999794006348,-4.03000020980835 9.52400016784668,-3.2279999256134033 9.267000198364258,-2.494999885559082 C9.267000198364258,-2.494999885559082 5.665999889373779,7.747000217437744 5.665999889373779,7.747000217437744z" />
      </g>
      <g opacity="1" transform="matrix(1,0,0,1,106.63600158691406,82.572998046875)">
        <path fill="#0e8c58" fill-opacity="1"
          d=" M5.666999816894531,7.745999813079834 C5.409999847412109,8.47700023651123 4.60699987411499,8.86299991607666 3.877000093460083,8.605999946594238 C3.877000093460083,8.605999946594238 -8.407999992370605,4.288000106811523 -8.407999992370605,4.288000106811523 C-9.140000343322754,4.03000020980835 -9.524999618530273,3.2269999980926514 -9.267999649047852,2.496000051498413 C-9.267999649047852,2.496000051498413 -5.665999889373779,-7.745999813079834 -5.665999889373779,-7.745999813079834 C-5.408999919891357,-8.477999687194824 -4.60699987411499,-8.86299991607666 -3.875999927520752,-8.605999946594238 C-3.875999927520752,-8.605999946594238 8.409000396728516,-4.2870001792907715 8.409000396728516,-4.2870001792907715 C9.138999938964844,-4.03000020980835 9.524999618530273,-3.2279999256134033 9.267999649047852,-2.496000051498413 C9.267999649047852,-2.496000051498413 5.666999816894531,7.745999813079834 5.666999816894531,7.745999813079834z" />
      </g>
      <g opacity="1" transform="matrix(1,0,0,1,41.93000030517578,79.88300323486328)">
        <path fill="rgb(91,101,173)" fill-opacity="1"
          d=" M5.665999889373779,7.748000144958496 C5.408999919891357,8.479999542236328 4.60699987411499,8.862000465393066 3.875999927520752,8.604999542236328 C3.875999927520752,8.604999542236328 -8.406000137329102,4.2870001792907715 -8.406000137329102,4.2870001792907715 C-9.138999938964844,4.0289998054504395 -9.52400016784668,3.2300000190734863 -9.267000198364258,2.497999906539917 C-9.267000198364258,2.497999906539917 -5.665999889373779,-7.744999885559082 -5.665999889373779,-7.744999885559082 C-5.408999919891357,-8.475000381469727 -4.60699987411499,-8.862000465393066 -3.874000072479248,-8.604000091552734 C-3.874000072479248,-8.604000091552734 8.409000396728516,-4.285999774932861 8.409000396728516,-4.285999774932861 C9.138999938964844,-4.0289998054504395 9.52400016784668,-3.2249999046325684 9.267000198364258,-2.494999885559082 C9.267000198364258,-2.494999885559082 5.665999889373779,7.748000144958496 5.665999889373779,7.748000144958496z" />
      </g>
      <g opacity="1" transform="matrix(1,0,0,1,41.18600082397461,78.697998046875)">
        <path fill="#0e8c58" fill-opacity="1"
          d=" M5.666999816894531,7.745999813079834 C5.408999919891357,8.479000091552734 4.60699987411499,8.862000465393066 3.875999927520752,8.604999542236328 C3.875999927520752,8.604999542236328 -8.407999992370605,4.2870001792907715 -8.407999992370605,4.2870001792907715 C-9.138999938964844,4.03000020980835 -9.524999618530273,3.2279999256134033 -9.267999649047852,2.496000051498413 C-9.267999649047852,2.496000051498413 -5.665999889373779,-7.745999813079834 -5.665999889373779,-7.745999813079834 C-5.408999919891357,-8.47700023651123 -4.605999946594238,-8.86299991607666 -3.874000072479248,-8.605999946594238 C-3.874000072479248,-8.605999946594238 8.407999992370605,-4.2870001792907715 8.407999992370605,-4.2870001792907715 C9.140000343322754,-4.03000020980835 9.524999618530273,-3.2260000705718994 9.267999649047852,-2.494999885559082 C9.267999649047852,-2.494999885559082 5.666999816894531,7.745999813079834 5.666999816894531,7.745999813079834z" />
      </g>
      <g opacity="1" transform="matrix(1,0,0,1,61.75199890136719,86.85199737548828)">
        <path fill="rgb(91,101,173)" fill-opacity="1"
          d=" M5.665999889373779,7.748000144958496 C5.408999919891357,8.479999542236328 4.60699987411499,8.862000465393066 3.875999927520752,8.604999542236328 C3.875999927520752,8.604999542236328 -8.407999992370605,4.2870001792907715 -8.407999992370605,4.2870001792907715 C-9.138999938964844,4.0289998054504395 -9.52400016784668,3.2290000915527344 -9.267000198364258,2.497999906539917 C-9.267000198364258,2.497999906539917 -5.665999889373779,-7.744999885559082 -5.665999889373779,-7.744999885559082 C-5.408999919891357,-8.475000381469727 -4.60699987411499,-8.862000465393066 -3.875,-8.604999542236328 C-3.875,-8.604999542236328 8.407999992370605,-4.285999774932861 8.407999992370605,-4.285999774932861 C9.140000343322754,-4.0289998054504395 9.52400016784668,-3.2249999046325684 9.267000198364258,-2.494999885559082 C9.267000198364258,-2.494999885559082 5.665999889373779,7.748000144958496 5.665999889373779,7.748000144958496z" />
      </g>
      <g opacity="1" transform="matrix(1,0,0,1,61.00699996948242,85.66699981689453)">
        <path fill="#0e8c58" fill-opacity="1"
          d=" M5.666999816894531,7.745999813079834 C5.408999919891357,8.479000091552734 4.607999801635742,8.86299991607666 3.877000093460083,8.605999946594238 C3.877000093460083,8.605999946594238 -8.407999992370605,4.2870001792907715 -8.407999992370605,4.2870001792907715 C-9.138999938964844,4.03000020980835 -9.524999618530273,3.2290000915527344 -9.267000198364258,2.496000051498413 C-9.267000198364258,2.496000051498413 -5.665999889373779,-7.745999813079834 -5.665999889373779,-7.745999813079834 C-5.408999919891357,-8.47700023651123 -4.605999946594238,-8.86299991607666 -3.875999927520752,-8.605999946594238 C-3.875999927520752,-8.605999946594238 8.409000396728516,-4.2870001792907715 8.409000396728516,-4.2870001792907715 C9.140000343322754,-4.03000020980835 9.524999618530273,-3.2260000705718994 9.267999649047852,-2.494999885559082 C9.267999649047852,-2.494999885559082 5.666999816894531,7.745999813079834 5.666999816894531,7.745999813079834z" />
      </g>
      <g opacity="1" transform="matrix(1,0,0,1,81.5719985961914,93.81999969482422)">
        <path fill="rgb(91,101,173)" fill-opacity="1"
          d=" M5.665999889373779,7.748000144958496 C5.408999919891357,8.479999542236328 4.60699987411499,8.862000465393066 3.877000093460083,8.605999946594238 C3.877000093460083,8.605999946594238 -8.406999588012695,4.2870001792907715 -8.406999588012695,4.2870001792907715 C-9.137999534606934,4.03000020980835 -9.52400016784668,3.2300000190734863 -9.267000198364258,2.497999906539917 C-9.267000198364258,2.497999906539917 -5.665999889373779,-7.74399995803833 -5.665999889373779,-7.74399995803833 C-5.408999919891357,-8.475000381469727 -4.605999946594238,-8.862000465393066 -3.874000072479248,-8.604000091552734 C-3.874000072479248,-8.604000091552734 8.409000396728516,-4.285999774932861 8.409000396728516,-4.285999774932861 C9.138999938964844,-4.0289998054504395 9.52400016784668,-3.2249999046325684 9.267000198364258,-2.49399995803833 C9.267000198364258,-2.49399995803833 5.665999889373779,7.748000144958496 5.665999889373779,7.748000144958496z" />
      </g>
      <g opacity="1" transform="matrix(1,0,0,1,80.8280029296875,92.63600158691406)">
        <path fill="#0e8c58" fill-opacity="1"
          d=" M5.666999816894531,7.745999813079834 C5.408999919891357,8.479000091552734 4.60699987411499,8.86299991607666 3.874000072479248,8.604999542236328 C3.874000072479248,8.604999542236328 -8.409000396728516,4.2870001792907715 -8.409000396728516,4.2870001792907715 C-9.140000343322754,4.03000020980835 -9.524999618530273,3.2290000915527344 -9.267000198364258,2.496000051498413 C-9.267000198364258,2.496000051498413 -5.665999889373779,-7.745999813079834 -5.665999889373779,-7.745999813079834 C-5.408999919891357,-8.47700023651123 -4.607999801635742,-8.86299991607666 -3.877000093460083,-8.605999946594238 C-3.877000093460083,-8.605999946594238 8.407999992370605,-4.2870001792907715 8.407999992370605,-4.2870001792907715 C9.140999794006348,-4.03000020980835 9.524999618530273,-3.2260000705718994 9.267999649047852,-2.494999885559082 C9.267999649047852,-2.494999885559082 5.666999816894531,7.745999813079834 5.666999816894531,7.745999813079834z" />
      </g>
      <g opacity="1" transform="matrix(1,0,0,1,101.39299774169922,100.78900146484375)">
        <path fill="rgb(91,101,173)" fill-opacity="1"
          d=" M5.665999889373779,7.747000217437744 C5.408999919891357,8.479000091552734 4.609000205993652,8.862000465393066 3.877000093460083,8.604000091552734 C3.877000093460083,8.604000091552734 -8.406000137329102,4.285999774932861 -8.406000137329102,4.285999774932861 C-9.138999938964844,4.0289998054504395 -9.52299976348877,3.2290000915527344 -9.265999794006348,2.496999979019165 C-9.265999794006348,2.496999979019165 -5.664000034332275,-7.744999885559082 -5.664000034332275,-7.744999885559082 C-5.4079999923706055,-8.47599983215332 -4.605999946594238,-8.862000465393066 -3.874000072479248,-8.604000091552734 C-3.874000072479248,-8.604000091552734 8.409000396728516,-4.285999774932861 8.409000396728516,-4.285999774932861 C9.140999794006348,-4.0289998054504395 9.52400016784668,-3.2249999046325684 9.267000198364258,-2.494999885559082 C9.267000198364258,-2.494999885559082 5.665999889373779,7.747000217437744 5.665999889373779,7.747000217437744z" />
      </g>
      <g opacity="1" transform="matrix(1,0,0,1,100.64800262451172,99.60399627685547)">
        <path fill="#0e8c58" fill-opacity="1"
          d=" M5.666999816894531,7.745999813079834 C5.408999919891357,8.479000091552734 4.60699987411499,8.86299991607666 3.877000093460083,8.605999946594238 C3.877000093460083,8.605999946594238 -8.406999588012695,4.2870001792907715 -8.406999588012695,4.2870001792907715 C-9.138999938964844,4.03000020980835 -9.524999618530273,3.2279999256134033 -9.267000198364258,2.496000051498413 C-9.267000198364258,2.496000051498413 -5.665999889373779,-7.745999813079834 -5.665999889373779,-7.745999813079834 C-5.408999919891357,-8.47700023651123 -4.605999946594238,-8.86299991607666 -3.875,-8.605999946594238 C-3.875,-8.605999946594238 8.40999984741211,-4.2870001792907715 8.40999984741211,-4.2870001792907715 C9.140000343322754,-4.03000020980835 9.524999618530273,-3.2260000705718994 9.267999649047852,-2.494999885559082 C9.267999649047852,-2.494999885559082 5.666999816894531,7.745999813079834 5.666999816894531,7.745999813079834z" />
      </g>
      <g opacity="1" transform="matrix(1,0,0,1,36.084999084472656,96.50800323486328)">
        <path fill="rgb(91,101,173)" fill-opacity="1"
          d=" M5.665999889373779,7.748000144958496 C5.408999919891357,8.479000091552734 4.60699987411499,8.86299991607666 3.875999927520752,8.605999946594238 C3.875999927520752,8.605999946594238 -8.406999588012695,4.288000106811523 -8.406999588012695,4.288000106811523 C-9.138999938964844,4.03000020980835 -9.52400016784668,3.2290000915527344 -9.267000198364258,2.497999906539917 C-9.267000198364258,2.497999906539917 -5.664999961853027,-7.745999813079834 -5.664999961853027,-7.745999813079834 C-5.4079999923706055,-8.47599983215332 -4.60699987411499,-8.86299991607666 -3.874000072479248,-8.604999542236328 C-3.874000072479248,-8.604999542236328 8.409000396728516,-4.2870001792907715 8.409000396728516,-4.2870001792907715 C9.140000343322754,-4.03000020980835 9.52400016784668,-3.2269999980926514 9.267000198364258,-2.496000051498413 C9.267000198364258,-2.496000051498413 5.665999889373779,7.748000144958496 5.665999889373779,7.748000144958496z" />
      </g>
      <g opacity="1" transform="matrix(1,0,0,1,35.340999603271484,95.3219985961914)">
        <path fill="#0e8c58" fill-opacity="1"
          d=" M5.666999816894531,7.747000217437744 C5.409999847412109,8.47700023651123 4.60699987411499,8.862000465393066 3.875999927520752,8.604999542236328 C3.875999927520752,8.604999542236328 -8.407999992370605,4.2870001792907715 -8.407999992370605,4.2870001792907715 C-9.138999938964844,4.03000020980835 -9.524999618530273,3.2269999980926514 -9.267999649047852,2.496999979019165 C-9.267999649047852,2.496999979019165 -5.665999889373779,-7.744999885559082 -5.665999889373779,-7.744999885559082 C-5.4079999923706055,-8.47700023651123 -4.605000019073486,-8.862000465393066 -3.874000072479248,-8.604999542236328 C-3.874000072479248,-8.604999542236328 8.409000396728516,-4.285999774932861 8.409000396728516,-4.285999774932861 C9.140000343322754,-4.0289998054504395 9.524999618530273,-3.2269999980926514 9.267999649047852,-2.494999885559082 C9.267999649047852,-2.494999885559082 5.666999816894531,7.747000217437744 5.666999816894531,7.747000217437744z" />
      </g>
      <g opacity="1" transform="matrix(1,0,0,1,55.90700149536133,103.47699737548828)">
        <path fill="rgb(91,101,173)" fill-opacity="1"
          d=" M5.665999889373779,7.748000144958496 C5.408999919891357,8.479000091552734 4.60699987411499,8.86299991607666 3.875999927520752,8.605999946594238 C3.875999927520752,8.605999946594238 -8.407999992370605,4.2870001792907715 -8.407999992370605,4.2870001792907715 C-9.140000343322754,4.03000020980835 -9.52400016784668,3.2290000915527344 -9.267000198364258,2.497999906539917 C-9.267000198364258,2.497999906539917 -5.665999889373779,-7.745999813079834 -5.665999889373779,-7.745999813079834 C-5.408999919891357,-8.47700023651123 -4.60699987411499,-8.86299991607666 -3.875,-8.605999946594238 C-3.875,-8.605999946594238 8.409000396728516,-4.2870001792907715 8.409000396728516,-4.2870001792907715 C9.140000343322754,-4.03000020980835 9.52400016784668,-3.2269999980926514 9.267000198364258,-2.496000051498413 C9.267000198364258,-2.496000051498413 5.665999889373779,7.748000144958496 5.665999889373779,7.748000144958496z" />
      </g>
      <g opacity="1" transform="matrix(1,0,0,1,55.1619987487793,102.29100036621094)">
        <path fill="#0e8c58" fill-opacity="1"
          d=" M5.665999889373779,7.747000217437744 C5.408999919891357,8.47700023651123 4.607999801635742,8.86299991607666 3.877000093460083,8.605999946594238 C3.877000093460083,8.605999946594238 -8.407999992370605,4.2870001792907715 -8.407999992370605,4.2870001792907715 C-9.137999534606934,4.03000020980835 -9.52400016784668,3.2269999980926514 -9.267000198364258,2.496999979019165 C-9.267000198364258,2.496999979019165 -5.665999889373779,-7.745999813079834 -5.665999889373779,-7.745999813079834 C-5.408999919891357,-8.477999687194824 -4.605999946594238,-8.86299991607666 -3.875,-8.605999946594238 C-3.875,-8.605999946594238 8.409000396728516,-4.2870001792907715 8.409000396728516,-4.2870001792907715 C9.140000343322754,-4.03000020980835 9.52400016784668,-3.2279999256134033 9.267000198364258,-2.496000051498413 C9.267000198364258,-2.496000051498413 5.665999889373779,7.747000217437744 5.665999889373779,7.747000217437744z" />
      </g>
      <g opacity="1" transform="matrix(1,0,0,1,75.72699737548828,110.44599914550781)">
        <path fill="rgb(91,101,173)" fill-opacity="1"
          d=" M5.665999889373779,7.748000144958496 C5.408999919891357,8.479000091552734 4.60699987411499,8.86299991607666 3.875999927520752,8.605999946594238 C3.875999927520752,8.605999946594238 -8.406999588012695,4.288000106811523 -8.406999588012695,4.288000106811523 C-9.138999938964844,4.03000020980835 -9.52400016784668,3.2290000915527344 -9.267000198364258,2.497999906539917 C-9.267000198364258,2.497999906539917 -5.664999961853027,-7.745999813079834 -5.664999961853027,-7.745999813079834 C-5.4079999923706055,-8.47700023651123 -4.605999946594238,-8.86299991607666 -3.874000072479248,-8.605999946594238 C-3.874000072479248,-8.605999946594238 8.409000396728516,-4.2870001792907715 8.409000396728516,-4.2870001792907715 C9.140000343322754,-4.03000020980835 9.52400016784668,-3.2269999980926514 9.267000198364258,-2.496000051498413 C9.267000198364258,-2.496000051498413 5.665999889373779,7.748000144958496 5.665999889373779,7.748000144958496z" />
      </g>
      <g opacity="1" transform="matrix(1,0,0,1,74.98400115966797,109.26000213623047)">
        <path fill="#0e8c58" fill-opacity="1"
          d=" M5.665999889373779,7.747000217437744 C5.408999919891357,8.47700023651123 4.60699987411499,8.86299991607666 3.875,8.604999542236328 C3.875,8.604999542236328 -8.409000396728516,4.285999774932861 -8.409000396728516,4.285999774932861 C-9.140000343322754,4.0289998054504395 -9.52400016784668,3.2269999980926514 -9.267000198364258,2.496999979019165 C-9.267000198364258,2.496999979019165 -5.666999816894531,-7.745999813079834 -5.666999816894531,-7.745999813079834 C-5.408999919891357,-8.477999687194824 -4.60699987411499,-8.86299991607666 -3.875999927520752,-8.605999946594238 C-3.875999927520752,-8.605999946594238 8.407999992370605,-4.2870001792907715 8.407999992370605,-4.2870001792907715 C9.140000343322754,-4.03000020980835 9.52400016784668,-3.2279999256134033 9.267000198364258,-2.494999885559082 C9.267000198364258,-2.494999885559082 5.665999889373779,7.747000217437744 5.665999889373779,7.747000217437744z" />
      </g>
      <g opacity="1" transform="matrix(1,0,0,1,95.5479965209961,117.41400146484375)">
        <path fill="rgb(91,101,173)" fill-opacity="1"
          d=" M5.664999961853027,7.748000144958496 C5.4079999923706055,8.479000091552734 4.60699987411499,8.86299991607666 3.875,8.605999946594238 C3.875,8.605999946594238 -8.406999588012695,4.288000106811523 -8.406999588012695,4.288000106811523 C-9.140000343322754,4.03000020980835 -9.52299976348877,3.2300000190734863 -9.267000198364258,2.497999906539917 C-9.267000198364258,2.497999906539917 -5.664999961853027,-7.744999885559082 -5.664999961853027,-7.744999885559082 C-5.4079999923706055,-8.47599983215332 -4.60699987411499,-8.86299991607666 -3.874000072479248,-8.604999542236328 C-3.874000072479248,-8.604999542236328 8.407999992370605,-4.2870001792907715 8.407999992370605,-4.2870001792907715 C9.140000343322754,-4.03000020980835 9.52299976348877,-3.2269999980926514 9.265999794006348,-2.496000051498413 C9.265999794006348,-2.496000051498413 5.664999961853027,7.748000144958496 5.664999961853027,7.748000144958496z" />
      </g>
      <g opacity="1" transform="matrix(1,0,0,1,94.80400085449219,116.22799682617188)">
        <path fill="#0e8c58" fill-opacity="1"
          d=" M5.666999816894531,7.747000217437744 C5.409999847412109,8.47700023651123 4.607999801635742,8.86299991607666 3.877000093460083,8.605999946594238 C3.877000093460083,8.605999946594238 -8.407999992370605,4.2870001792907715 -8.407999992370605,4.2870001792907715 C-9.138999938964844,4.03000020980835 -9.524999618530273,3.2269999980926514 -9.267999649047852,2.496999979019165 C-9.267999649047852,2.496999979019165 -5.665999889373779,-7.745999813079834 -5.665999889373779,-7.745999813079834 C-5.4079999923706055,-8.477999687194824 -4.605000019073486,-8.86299991607666 -3.874000072479248,-8.605999946594238 C-3.874000072479248,-8.605999946594238 8.409000396728516,-4.2870001792907715 8.409000396728516,-4.2870001792907715 C9.140000343322754,-4.03000020980835 9.524999618530273,-3.2279999256134033 9.267999649047852,-2.496000051498413 C9.267999649047852,-2.496000051498413 5.666999816894531,7.747000217437744 5.666999816894531,7.747000217437744z" />
      </g>
      <g opacity="1" transform="matrix(1,0,0,1,29.797000885009766,114.39399719238281)">
        <path fill="rgb(91,101,173)" fill-opacity="1"
          d=" M5.665999889373779,7.747000217437744 C5.4079999923706055,8.479999542236328 4.60699987411499,8.862000465393066 3.875999927520752,8.605999946594238 C3.875999927520752,8.605999946594238 -8.406999588012695,4.2870001792907715 -8.406999588012695,4.2870001792907715 C-9.140000343322754,4.03000020980835 -9.52400016784668,3.2300000190734863 -9.267000198364258,2.496999979019165 C-9.267000198364258,2.496999979019165 -5.665999889373779,-7.744999885559082 -5.665999889373779,-7.744999885559082 C-5.4079999923706055,-8.47599983215332 -4.60699987411499,-8.862000465393066 -3.874000072479248,-8.604000091552734 C-3.874000072479248,-8.604000091552734 8.409000396728516,-4.285999774932861 8.409000396728516,-4.285999774932861 C9.138999938964844,-4.0289998054504395 9.52400016784668,-3.2260000705718994 9.267000198364258,-2.494999885559082 C9.267000198364258,-2.494999885559082 5.665999889373779,7.747000217437744 5.665999889373779,7.747000217437744z" />
      </g>
      <g opacity="1" transform="matrix(1,0,0,1,29.05299949645996,113.20999908447266)">
        <path fill="#0e8c58" fill-opacity="1"
          d=" M5.666999816894531,7.744999885559082 C5.409999847412109,8.47599983215332 4.605999946594238,8.86299991607666 3.874000072479248,8.604999542236328 C3.874000072479248,8.604999542236328 -8.407999992370605,4.2870001792907715 -8.407999992370605,4.2870001792907715 C-9.140000343322754,4.03000020980835 -9.524999618530273,3.2260000705718994 -9.267999649047852,2.494999885559082 C-9.267999649047852,2.494999885559082 -5.665999889373779,-7.748000144958496 -5.665999889373779,-7.748000144958496 C-5.408999919891357,-8.479000091552734 -4.60699987411499,-8.86299991607666 -3.875999927520752,-8.605999946594238 C-3.875999927520752,-8.605999946594238 8.407999992370605,-4.288000106811523 8.407999992370605,-4.288000106811523 C9.140000343322754,-4.031000137329102 9.524999618530273,-3.2290000915527344 9.267999649047852,-2.497999906539917 C9.267999649047852,-2.497999906539917 5.666999816894531,7.744999885559082 5.666999816894531,7.744999885559082z" />
      </g>
      <g opacity="1" transform="matrix(1,0,0,1,49.61800003051758,121.36299896240234)">
        <path fill="rgb(91,101,173)" fill-opacity="1"
          d=" M5.666999816894531,7.747000217437744 C5.408999919891357,8.479999542236328 4.607999801635742,8.862000465393066 3.875999927520752,8.604999542236328 C3.875999927520752,8.604999542236328 -8.407999992370605,4.2870001792907715 -8.407999992370605,4.2870001792907715 C-9.140000343322754,4.0289998054504395 -9.524999618530273,3.2300000190734863 -9.267000198364258,2.496999979019165 C-9.267000198364258,2.496999979019165 -5.664999961853027,-7.744999885559082 -5.664999961853027,-7.744999885559082 C-5.4079999923706055,-8.47599983215332 -4.605999946594238,-8.862000465393066 -3.874000072479248,-8.604999542236328 C-3.874000072479248,-8.604999542236328 8.409000396728516,-4.285999774932861 8.409000396728516,-4.285999774932861 C9.140999794006348,-4.0289998054504395 9.524999618530273,-3.2260000705718994 9.267999649047852,-2.494999885559082 C9.267999649047852,-2.494999885559082 5.666999816894531,7.747000217437744 5.666999816894531,7.747000217437744z" />
      </g>
      <g opacity="1" transform="matrix(1,0,0,1,48.874000549316406,120.1780014038086)">
        <path fill="#0e8c58" fill-opacity="1"
          d=" M5.666999816894531,7.744999885559082 C5.409999847412109,8.47700023651123 4.607999801635742,8.86299991607666 3.877000093460083,8.605999946594238 C3.877000093460083,8.605999946594238 -8.409000396728516,4.2870001792907715 -8.409000396728516,4.2870001792907715 C-9.138999938964844,4.03000020980835 -9.524999618530273,3.2260000705718994 -9.267000198364258,2.494999885559082 C-9.267000198364258,2.494999885559082 -5.664999961853027,-7.748000144958496 -5.664999961853027,-7.748000144958496 C-5.4079999923706055,-8.479000091552734 -4.605999946594238,-8.86299991607666 -3.875999927520752,-8.605999946594238 C-3.875999927520752,-8.605999946594238 8.409000396728516,-4.2870001792907715 8.409000396728516,-4.2870001792907715 C9.140000343322754,-4.03000020980835 9.524999618530273,-3.2290000915527344 9.267999649047852,-2.497999906539917 C9.267999649047852,-2.497999906539917 5.666999816894531,7.744999885559082 5.666999816894531,7.744999885559082z" />
      </g>
      <g opacity="1" transform="matrix(1,0,0,1,69.43900299072266,128.33099365234375)">
        <path fill="rgb(91,101,173)" fill-opacity="1"
          d=" M5.665999889373779,7.747000217437744 C5.4079999923706055,8.479999542236328 4.60699987411499,8.862000465393066 3.875999927520752,8.605999946594238 C3.875999927520752,8.605999946594238 -8.406999588012695,4.2870001792907715 -8.406999588012695,4.2870001792907715 C-9.138999938964844,4.03000020980835 -9.52400016784668,3.2300000190734863 -9.267000198364258,2.496999979019165 C-9.267000198364258,2.496999979019165 -5.664999961853027,-7.744999885559082 -5.664999961853027,-7.744999885559082 C-5.4079999923706055,-8.47599983215332 -4.605999946594238,-8.862000465393066 -3.874000072479248,-8.604000091552734 C-3.874000072479248,-8.604000091552734 8.409000396728516,-4.285999774932861 8.409000396728516,-4.285999774932861 C9.138999938964844,-4.0289998054504395 9.52400016784668,-3.2260000705718994 9.267000198364258,-2.494999885559082 C9.267000198364258,-2.494999885559082 5.665999889373779,7.747000217437744 5.665999889373779,7.747000217437744z" />
      </g>
      <g opacity="1" transform="matrix(1,0,0,1,68.69499969482422,127.14600372314453)">
        <path fill="#0e8c58" fill-opacity="1"
          d=" M5.666999816894531,7.744999885559082 C5.409999847412109,8.47700023651123 4.605999946594238,8.86400032043457 3.874000072479248,8.605999946594238 C3.874000072479248,8.605999946594238 -8.409000396728516,4.288000106811523 -8.409000396728516,4.288000106811523 C-9.140000343322754,4.031000137329102 -9.524999618530273,3.2260000705718994 -9.267000198364258,2.494999885559082 C-9.267000198364258,2.494999885559082 -5.665999889373779,-7.747000217437744 -5.665999889373779,-7.747000217437744 C-5.4079999923706055,-8.477999687194824 -4.607999801635742,-8.86400032043457 -3.877000093460083,-8.607000350952148 C-3.877000093460083,-8.607000350952148 8.407999992370605,-4.288000106811523 8.407999992370605,-4.288000106811523 C9.140000343322754,-4.03000020980835 9.524999618530273,-3.2279999256134033 9.267999649047852,-2.496999979019165 C9.267999649047852,-2.496999979019165 5.666999816894531,7.744999885559082 5.666999816894531,7.744999885559082z" />
      </g>
      <g opacity="1" transform="matrix(1,0,0,1,86.2229995727539,143.9409942626953)">
        <path fill="rgb(207,35,51)" fill-opacity="1"
          d=" M2.627000093460083,16.38800048828125 C2.369999885559082,17.118000030517578 1.569000005722046,17.503999710083008 0.8370000123977661,17.246999740600586 C0.8370000123977661,17.246999740600586 -11.446999549865723,12.928000450134277 -11.446999549865723,12.928000450134277 C-12.178999900817871,12.670999526977539 -12.560999870300293,11.869000434875488 -12.305000305175781,11.137999534606934 C-12.305000305175781,11.137999534606934 -2.627000093460083,-16.38800048828125 -2.627000093460083,-16.38800048828125 C-2.369999885559082,-17.118999481201172 -1.5700000524520874,-17.503999710083008 -0.8379999995231628,-17.246000289916992 C-0.8379999995231628,-17.246000289916992 11.446000099182129,-12.928000450134277 11.446000099182129,-12.928000450134277 C12.178000450134277,-12.670999526977539 12.562000274658203,-11.868000030517578 12.305000305175781,-11.13700008392334 C12.305000305175781,-11.13700008392334 2.627000093460083,16.38800048828125 2.627000093460083,16.38800048828125z" />
      </g>
      <g opacity="1" transform="matrix(1,0,0,1,85.47799682617188,142.75599670410156)">
        <path fill="rgb(247,49,63)" fill-opacity="1"
          d=" M2.628999948501587,16.386999130249023 C2.371999979019165,17.118000030517578 1.5700000524520874,17.503000259399414 0.8389999866485596,17.246000289916992 C0.8389999866485596,17.246000289916992 -11.446000099182129,12.927000045776367 -11.446000099182129,12.927000045776367 C-12.177000045776367,12.670000076293945 -12.562999725341797,11.866999626159668 -12.305999755859375,11.13700008392334 C-12.305999755859375,11.13700008392334 -2.628999948501587,-16.388999938964844 -2.628999948501587,-16.388999938964844 C-2.371999979019165,-17.1200008392334 -1.569000005722046,-17.503000259399414 -0.8370000123977661,-17.246000289916992 C-0.8370000123977661,-17.246000289916992 11.447999954223633,-12.927000045776367 11.447999954223633,-12.927000045776367 C12.178000450134277,-12.670000076293945 12.562000274658203,-11.868000030517578 12.305000305175781,-11.137999534606934 C12.305000305175781,-11.137999534606934 2.628999948501587,16.386999130249023 2.628999948501587,16.386999130249023z" />
      </g>
      <g opacity="1" transform="matrix(1,0,0,1,23.722000122070312,131.67599487304688)">
        <path fill="rgb(91,101,173)" fill-opacity="1"
          d=" M5.665999889373779,7.748000144958496 C5.408999919891357,8.477999687194824 4.60699987411499,8.86299991607666 3.875999927520752,8.607000350952148 C3.875999927520752,8.607000350952148 -8.407999992370605,4.288000106811523 -8.407999992370605,4.288000106811523 C-9.140999794006348,4.031000137329102 -9.524999618530273,3.2279999256134033 -9.267999649047852,2.497999906539917 C-9.267999649047852,2.497999906539917 -5.665999889373779,-7.744999885559082 -5.665999889373779,-7.744999885559082 C-5.4079999923706055,-8.47700023651123 -4.60699987411499,-8.86299991607666 -3.874000072479248,-8.604999542236328 C-3.874000072479248,-8.604999542236328 8.409000396728516,-4.2870001792907715 8.409000396728516,-4.2870001792907715 C9.140000343322754,-4.03000020980835 9.524999618530273,-3.2269999980926514 9.267000198364258,-2.494999885559082 C9.267000198364258,-2.494999885559082 5.665999889373779,7.748000144958496 5.665999889373779,7.748000144958496z" />
      </g>
      <g opacity="1" transform="matrix(1,0,0,1,22.97800064086914,130.49000549316406)">
        <path fill="#0e8c58" fill-opacity="1"
          d=" M5.665999889373779,7.747000217437744 C5.408999919891357,8.47700023651123 4.605999946594238,8.862000465393066 3.875,8.604999542236328 C3.875,8.604999542236328 -8.407999992370605,4.2870001792907715 -8.407999992370605,4.2870001792907715 C-9.138999938964844,4.03000020980835 -9.524999618530273,3.2269999980926514 -9.267999649047852,2.496999979019165 C-9.267999649047852,2.496999979019165 -5.666999816894531,-7.744999885559082 -5.666999816894531,-7.744999885559082 C-5.408999919891357,-8.477999687194824 -4.605999946594238,-8.862000465393066 -3.875,-8.604999542236328 C-3.875,-8.604999542236328 8.407999992370605,-4.285999774932861 8.407999992370605,-4.285999774932861 C9.138999938964844,-4.0289998054504395 9.524999618530273,-3.2279999256134033 9.267000198364258,-2.494999885559082 C9.267000198364258,-2.494999885559082 5.665999889373779,7.747000217437744 5.665999889373779,7.747000217437744z" />
      </g>
      <g opacity="1" transform="matrix(1,0,0,1,43.542999267578125,138.64599609375)">
        <path fill="rgb(91,101,173)" fill-opacity="1"
          d=" M5.665999889373779,7.747000217437744 C5.408999919891357,8.47700023651123 4.60699987411499,8.86299991607666 3.875,8.604999542236328 C3.875,8.604999542236328 -8.409000396728516,4.2870001792907715 -8.409000396728516,4.2870001792907715 C-9.140999794006348,4.0289998054504395 -9.524999618530273,3.2269999980926514 -9.267999649047852,2.496999979019165 C-9.267999649047852,2.496999979019165 -5.665999889373779,-7.744999885559082 -5.665999889373779,-7.744999885559082 C-5.408999919891357,-8.47700023651123 -4.60699987411499,-8.86299991607666 -3.875,-8.604999542236328 C-3.875,-8.604999542236328 8.407999992370605,-4.2870001792907715 8.407999992370605,-4.2870001792907715 C9.140000343322754,-4.03000020980835 9.524999618530273,-3.2269999980926514 9.267000198364258,-2.494999885559082 C9.267000198364258,-2.494999885559082 5.665999889373779,7.747000217437744 5.665999889373779,7.747000217437744z" />
      </g>
      <g opacity="1" transform="matrix(1,0,0,1,42.79800033569336,137.4600067138672)">
        <path fill="#0e8c58" fill-opacity="1"
          d=" M5.665999889373779,7.745999813079834 C5.408999919891357,8.47599983215332 4.607999801635742,8.862000465393066 3.877000093460083,8.604999542236328 C3.877000093460083,8.604999542236328 -8.409000396728516,4.285999774932861 -8.409000396728516,4.285999774932861 C-9.138999938964844,4.0289998054504395 -9.524999618530273,3.2260000705718994 -9.267999649047852,2.496000051498413 C-9.267999649047852,2.496000051498413 -5.665999889373779,-7.745999813079834 -5.665999889373779,-7.745999813079834 C-5.408999919891357,-8.479000091552734 -4.605999946594238,-8.86299991607666 -3.875,-8.607000350952148 C-3.875,-8.607000350952148 8.409000396728516,-4.288000106811523 8.409000396728516,-4.288000106811523 C9.140000343322754,-4.031000137329102 9.524999618530273,-3.2290000915527344 9.267000198364258,-2.496000051498413 C9.267000198364258,-2.496000051498413 5.665999889373779,7.745999813079834 5.665999889373779,7.745999813079834z" />
      </g>
      <g opacity="1" transform="matrix(1,0,0,1,63.36399841308594,145.61399841308594)">
        <path fill="rgb(91,101,173)" fill-opacity="1"
          d=" M5.664999961853027,7.747000217437744 C5.4079999923706055,8.47700023651123 4.605999946594238,8.862000465393066 3.875,8.605999946594238 C3.875,8.605999946594238 -8.407999992370605,4.2870001792907715 -8.407999992370605,4.2870001792907715 C-9.140000343322754,4.03000020980835 -9.52400016784668,3.2269999980926514 -9.267999649047852,2.496999979019165 C-9.267999649047852,2.496999979019165 -5.665999889373779,-7.744999885559082 -5.665999889373779,-7.744999885559082 C-5.408999919891357,-8.47700023651123 -4.60699987411499,-8.862000465393066 -3.875,-8.604999542236328 C-3.875,-8.604999542236328 8.407999992370605,-4.2870001792907715 8.407999992370605,-4.2870001792907715 C9.138999938964844,-4.03000020980835 9.52400016784668,-3.2269999980926514 9.265999794006348,-2.494999885559082 C9.265999794006348,-2.494999885559082 5.664999961853027,7.747000217437744 5.664999961853027,7.747000217437744z" />
      </g>
      <g opacity="1" transform="matrix(1,0,0,1,62.619998931884766,144.42799377441406)">
        <path fill="#0e8c58" fill-opacity="1"
          d=" M5.665999889373779,7.747000217437744 C5.408999919891357,8.47700023651123 4.60699987411499,8.86299991607666 3.875,8.604999542236328 C3.875,8.604999542236328 -8.409000396728516,4.285999774932861 -8.409000396728516,4.285999774932861 C-9.140000343322754,4.0289998054504395 -9.524999618530273,3.2269999980926514 -9.267999649047852,2.496999979019165 C-9.267999649047852,2.496999979019165 -5.666999816894531,-7.744999885559082 -5.666999816894531,-7.744999885559082 C-5.408999919891357,-8.477999687194824 -4.607999801635742,-8.86299991607666 -3.877000093460083,-8.605999946594238 C-3.877000093460083,-8.605999946594238 8.407999992370605,-4.2870001792907715 8.407999992370605,-4.2870001792907715 C9.140000343322754,-4.03000020980835 9.524999618530273,-3.2279999256134033 9.267000198364258,-2.494999885559082 C9.267000198364258,-2.494999885559082 5.665999889373779,7.747000217437744 5.665999889373779,7.747000217437744z" />
      </g>
      <g opacity="1" transform="matrix(1,0,0,1,83.44599914550781,56.98899841308594)">
        <path fill="#0e8c58" fill-opacity="1"
          d=" M35.25199890136719,16.972000122070312 C35.25199890136719,16.972000122070312 -38.117000579833984,-8.821999549865723 -38.117000579833984,-8.821999549865723 C-38.117000579833984,-8.821999549865723 -35.25199890136719,-16.972000122070312 -35.25199890136719,-16.972000122070312 C-35.25199890136719,-16.972000122070312 38.117000579833984,8.822999954223633 38.117000579833984,8.822999954223633 C38.117000579833984,8.822999954223633 35.25199890136719,16.972000122070312 35.25199890136719,16.972000122070312z" />
      </g>
      <g opacity="1" transform="matrix(1,0,0,1,82.94100189208984,56.00299835205078)">
        <path fill="#838383" fill-opacity="1"
          d=" M34.74700164794922,15.984999656677246 C34.74700164794922,15.984999656677246 -37.10599899291992,-9.276000022888184 -37.10599899291992,-9.276000022888184 C-37.10599899291992,-9.276000022888184 -34.74700164794922,-15.984999656677246 -34.74700164794922,-15.984999656677246 C-34.74700164794922,-15.984999656677246 37.10599899291992,9.276000022888184 37.10599899291992,9.276000022888184 C37.10599899291992,9.276000022888184 34.74700164794922,15.984999656677246 34.74700164794922,15.984999656677246z" />
      </g>
    </g>
    <g transform="matrix(-0.7991020083427429,-0.6011954545974731,0.6011954545974731,-0.7991020083427429,730,800)"
      opacity="1" style="display: block;">
      <g opacity="1" transform="matrix(1,0,0,1,93.47799682617188,90.3219985961914)">
        <path fill="#f7eb08" fill-opacity="1"
          d=" M-60.380001068115234,56.00400161743164 C-91.60800170898438,24.333999633789062 -93.22799682617188,-25.525999069213867 -65.31199645996094,-59.03799819946289 C-63.560001373291016,-61.20399856567383 -61.63600158691406,-63.30699920654297 -59.584999084472656,-65.35099792480469 C-43.500999450683594,-81.20500183105469 -22.783000946044922,-89.42400360107422 -1.840999960899353,-90.00700378417969 C0.7929999828338623,-90.0719985961914 3.4170000553131104,-90.04900360107422 6.065000057220459,-89.84600067138672 C6.421999931335449,-89.85099792480469 6.822999954223633,-89.85099792480469 7.175000190734863,-89.81199645996094 C8.190999984741211,-89.74400329589844 9.246999740600586,-89.62899780273438 10.302000045776367,-89.51200103759766 C12.062000274658203,-89.31800079345703 13.815999984741211,-89.0790023803711 15.517000198364258,-88.75800323486328 C17.222999572753906,-88.4800033569336 18.875,-88.12000274658203 20.525999069213867,-87.76000213623047 C20.740999221801758,-87.69100189208984 20.91699981689453,-87.6719970703125 21.131999969482422,-87.60399627685547 C22.47599983215332,-87.2770004272461 23.815000534057617,-86.90699768066406 25.149999618530273,-86.49199676513672 C25.23699951171875,-86.48300170898438 25.326000213623047,-86.4729995727539 25.364999771118164,-86.42400360107422 C26.142000198364258,-86.20500183105469 26.913999557495117,-85.94300079345703 27.68600082397461,-85.67900085449219 C28.038000106811523,-85.64099884033203 28.336000442504883,-85.51799774169922 28.6299991607666,-85.35199737548828 C30.476999282836914,-84.74700164794922 32.310001373291016,-84.01200103759766 34.13800048828125,-83.23100280761719 C35.2869987487793,-82.74800109863281 36.39099884033203,-82.26899719238281 37.53499984741211,-81.74299621582031 C38.25899887084961,-81.44000244140625 38.97700119018555,-81.09300231933594 39.64699935913086,-80.70800018310547 C40.321998596191406,-80.36599731445312 41.040000915527344,-80.0199966430664 41.709999084472656,-79.63500213623047 C43.05400085449219,-78.90699768066406 44.393001556396484,-78.13600158691406 45.683998107910156,-77.32599639892578 C47.2239990234375,-76.3550033569336 48.75899887084961,-75.33899688720703 50.290000915527344,-74.27999877929688 C54.3380012512207,-71.43000030517578 58.16600036621094,-68.2030029296875 61.77000045776367,-64.55500030517578 C87.83399963378906,-38.12900161743164 93.22799682617188,0.9290000200271606 78.16200256347656,32.564998626708984 C74.02999877929688,41.36899948120117 68.2699966430664,49.590999603271484 60.974998474121094,56.79899978637695 C27.253999710083008,90.07099914550781 -27.06399917602539,89.7300033569336 -60.380001068115234,56.00400161743164z" />
      </g>
      <g opacity="1" transform="matrix(1,0,0,1,140.44400024414062,67.65299987792969)">
        <path fill="#3cff00" fill-opacity="1"
          d=" M31.207000732421875,55.25400161743164 C31.207000732421875,55.25400161743164 -46.275001525878906,18.39299964904785 -46.275001525878906,18.39299964904785 C-46.275001525878906,18.39299964904785 -1.7719999551773071,-55.25400161743164 3.303999900817871,-51.62200164794922 C7.354000091552734,-48.779998779296875 11.180999755859375,-45.53200149536133 14.786999702453613,-41.87900161743164 C40.86600112915039,-15.458000183105469 46.275001525878906,23.5939998626709 31.207000732421875,55.25400161743164z" />
      </g>
      <g opacity="1" transform="matrix(1,0,0,1,63.85499954223633,43.13600158691406)">
        <path fill="#0264f6" fill-opacity="1"
          d=" M30.298999786376953,42.8849983215332 C30.298999786376953,42.8849983215332 -35.6879997253418,-11.85200023651123 -35.6879997253418,-11.85200023651123 C-33.93600082397461,-14.017999649047852 -32.012001037597656,-16.1200008392334 -29.961000442504883,-18.163999557495117 C-13.876999855041504,-34.018001556396484 6.839000225067139,-42.237998962402344 27.781999588012695,-42.81999969482422 C30.415000915527344,-42.8849983215332 33.040000915527344,-42.862998962402344 35.6879997253418,-42.65999984741211 C35.6879997253418,-42.65999984741211 30.298999786376953,42.8849983215332 30.298999786376953,42.8849983215332z" />
      </g>
      <g opacity="1" transform="matrix(1,0,0,1,117.7020034790039,43.13600158691406)">
        <path fill="#b6008f" fill-opacity="1"
          d=" M-23.548999786376953,42.8849983215332 C-23.548999786376953,42.8849983215332 -26.065000534057617,-42.81999969482422 -26.065000534057617,-42.81999969482422 C-23.43199920654297,-42.8849983215332 -20.80699920654297,-42.862998962402344 -18.159000396728516,-42.65999984741211 C-17.802000045776367,-42.665000915527344 -17.44499969482422,-42.66999816894531 -17.049999237060547,-42.625999450683594 C-16.033000946044922,-42.558998107910156 -14.977999687194824,-42.44200134277344 -13.92199993133545,-42.32600021362305 C-12.163000106811523,-42.13199996948242 -10.407999992370605,-41.893001556396484 -8.708000183105469,-41.571998596191406 C-7.001999855041504,-41.29499816894531 -5.349999904632568,-40.933998107910156 -3.697999954223633,-40.57400131225586 C-3.4830000400543213,-40.50600051879883 -3.306999921798706,-40.486000061035156 -3.0920000076293945,-40.417999267578125 C-1.7480000257492065,-40.09199905395508 -0.4090000092983246,-39.72200012207031 0.925000011920929,-39.30699920654297 C1.0130000114440918,-39.297000885009766 1.1009999513626099,-39.28900146484375 1.1399999856948853,-39.2400016784668 C1.9170000553131104,-39.020999908447266 2.690000057220459,-38.75600051879883 3.4619998931884766,-38.49300003051758 C3.813999891281128,-38.45399856567383 4.111999988555908,-38.33300018310547 4.40500020980835,-38.16699981689453 C7.454999923706055,-37.16299819946289 10.392999649047852,-35.948001861572266 13.310999870300293,-34.55699920654297 C14.034000396728516,-34.255001068115234 14.753000259399414,-33.90800094604492 15.42300033569336,-33.52299880981445 C16.097000122070312,-33.180999755859375 16.81599998474121,-32.834999084472656 17.486000061035156,-32.44900131225586 C18.829999923706055,-31.722000122070312 20.16900062561035,-30.951000213623047 21.459999084472656,-30.141000747680664 C23,-29.16900062561035 24.53499984741211,-28.15399932861328 26.065000534057617,-27.094999313354492 C26.065000534057617,-27.094999313354492 -23.548999786376953,42.8849983215332 -23.548999786376953,42.8849983215332z" />
      </g>
    </g>
    <g transform="matrix(-0.41999998688697815,0,0,0.41999998688697815,900,700)" opacity="1" style="display: block;">
      <g opacity="1" transform="matrix(1,0,0,1,0,0)">
        <g opacity="1"
          transform="matrix(0.9855464100837708,-0.1694057136774063,0.1694057136774063,0.9855464100837708,-48.77199935913086,12.798095703125)">
          <g opacity="0.2" transform="matrix(1,0,0,1,425.94000244140625,137.072998046875)">
            <path fill="rgb(19,16,18)" fill-opacity="1"
              d=" M-73.53099822998047,85.99800109863281 C-121.23600006103516,45.20800018310547 -126.98999786376953,-26.361000061035156 -86.37899780273438,-73.85600280761719 C-45.76900100708008,-121.3499984741211 25.825000762939453,-126.78600311279297 73.52999877929688,-85.99700164794922 C121.23600006103516,-45.207000732421875 126.98699951171875,26.36199951171875 86.37799835205078,73.85700225830078 C45.768001556396484,121.35199737548828 -25.825000762939453,126.78800201416016 -73.53099822998047,85.99800109863281z" />
          </g>
          <g opacity="1" transform="matrix(1,0,0,1,340.156005859375,237.4029998779297)">
            <path fill="rgb(19,16,18)" fill-opacity="1"
              d=" M-1.149999976158142,16.29400062561035 C-1.149999976158142,16.29400062561035 -15.918000221252441,3.6679999828338623 -15.918000221252441,3.6679999828338623 C-15.918000221252441,3.6679999828338623 1.1510000228881836,-16.29400062561035 1.1510000228881836,-16.29400062561035 C1.1510000228881836,-16.29400062561035 15.918000221252441,-3.6679999828338623 15.918000221252441,-3.6679999828338623 C15.918000221252441,-3.6679999828338623 -1.149999976158142,16.29400062561035 -1.149999976158142,16.29400062561035z" />
          </g>
          <g opacity="1" transform="matrix(1,0,0,1,257.593994140625,333.0979919433594)">
            <path fill="rgb(19,16,18)" fill-opacity="1"
              d=" M-52.108001708984375,91.0530014038086 C-56.744998931884766,96.99600219726562 -67.39099884033203,96.08899688720703 -75.62999725341797,89.04499816894531 C-83.86799621582031,82.0009994506836 -86.42500305175781,71.61799621582031 -81.26799774169922,66.12100219726562 C-81.26799774169922,66.12100219726562 50.40399932861328,-80.39700317382812 50.40399932861328,-80.39700317382812 C50.40399932861328,-80.39700317382812 54.29199981689453,-84.54900360107422 54.29199981689453,-84.54900360107422 C54.29199981689453,-84.54900360107422 57.21699905395508,-87.65599822998047 57.21699905395508,-87.65599822998047 C57.21699905395508,-87.65599822998047 61.104000091552734,-91.80899810791016 61.104000091552734,-91.80899810791016 C61.104000091552734,-91.80899810791016 65.96900177001953,-96.99600219726562 65.96900177001953,-96.99600219726562 C65.96900177001953,-96.99600219726562 86.42500305175781,-79.50599670410156 86.42500305175781,-79.50599670410156 C86.42500305175781,-79.50599670410156 82.05699920654297,-73.89399719238281 82.05699920654297,-73.89399719238281 C82.05699920654297,-73.89399719238281 78.55799865722656,-69.40899658203125 78.55799865722656,-69.40899658203125 C78.55799865722656,-69.40899658203125 75.94400024414062,-66.03600311279297 75.94400024414062,-66.03600311279297 C75.94400024414062,-66.03600311279297 72.44499969482422,-61.55099868774414 72.44499969482422,-61.55099868774414 C72.44499969482422,-61.55099868774414 -52.108001708984375,91.0530014038086 -52.108001708984375,91.0530014038086z" />
          </g>
          <g opacity="1" transform="matrix(1,0,0,1,327.1570129394531,252.57400512695312)">
            <path fill="rgb(252,213,47)" fill-opacity="1"
              d=" M8.121999740600586,12.13599967956543 C8.121999740600586,12.13599967956543 -13.220000267028809,-6.111000061035156 -13.220000267028809,-6.111000061035156 C-13.220000267028809,-6.111000061035156 -7.73199987411499,-12.13599967956543 -7.73199987411499,-12.13599967956543 C-7.73199987411499,-12.13599967956543 13.220000267028809,5.78000020980835 13.220000267028809,5.78000020980835 C13.220000267028809,5.78000020980835 8.121999740600586,12.13599967956543 8.121999740600586,12.13599967956543z" />
          </g>
          <g opacity="1" transform="matrix(1,0,0,1,317.8949890136719,263.4070129394531)">
            <path fill="rgb(252,213,47)" fill-opacity="1"
              d=" M8.472000122070312,12.4350004196167 C8.472000122070312,12.4350004196167 -13.569000244140625,-6.410999774932861 -13.569000244140625,-6.410999774932861 C-13.569000244140625,-6.410999774932861 -8.081999778747559,-12.4350004196167 -8.081999778747559,-12.4350004196167 C-8.081999778747559,-12.4350004196167 13.569000244140625,6.078999996185303 13.569000244140625,6.078999996185303 C13.569000244140625,6.078999996185303 8.472000122070312,12.4350004196167 8.472000122070312,12.4350004196167z" />
          </g>
          <g opacity="1" transform="matrix(1,0,0,1,425.9389953613281,137.07400512695312)">
            <path fill="rgb(19,16,18)" fill-opacity="1"
              d=" M79.39099884033203,-92.85299682617188 C27.96500015258789,-136.82400512695312 -49.487998962402344,-130.94400024414062 -93.26399993896484,-79.74400329589844 C-137.04100036621094,-28.545000076293945 -130.81900024414062,48.88100051879883 -79.39299774169922,92.85199737548828 C-27.965999603271484,136.82400512695312 49.48699951171875,130.94200134277344 93.26300048828125,79.74299621582031 C137.04100036621094,28.54400062561035 130.8179931640625,-48.88100051879883 79.39099884033203,-92.85299682617188z M-73.53099822998047,85.99700164794922 C-121.23600006103516,45.207000732421875 -126.98999786376953,-26.36199951171875 -86.37899780273438,-73.85700225830078 C-45.76900100708008,-121.35099792480469 25.825000762939453,-126.78700256347656 73.52999877929688,-85.99800109863281 C121.23600006103516,-45.20800018310547 126.98699951171875,26.361000061035156 86.37799835205078,73.85600280761719 C45.768001556396484,121.35099792480469 -25.825000762939453,126.78700256347656 -73.53099822998047,85.99700164794922z" />
          </g>
          <g opacity="1" transform="matrix(1,0,0,1,434.364990234375,62.659000396728516)">
            <path fill="rgb(235,234,230)" fill-opacity="1"
              d=" M-2.947000026702881,-2.503999948501587 C-35.369998931884766,-2.2829999923706055 -56.14500045776367,16.93199920654297 -57.6609992980957,14.468999862670898 C-59.45000076293945,11.560999870300293 -33.33599853515625,-19.78499984741211 1.0850000381469727,-18.839000701904297 C34.983001708984375,-17.906999588012695 59.45000076293945,13.86400032043457 57.4109992980957,16.957000732421875 C55.547000885009766,19.785999298095703 32.41899871826172,-2.746999979019165 -2.947000026702881,-2.503999948501587z" />
          </g>
        </g>
      </g>

    </g>
    <g transform="matrix(1,0,0,1,350,400)" opacity="1" style="display: block;">
      <g opacity="1"
        transform="matrix(-0.7991020083427429,-0.6011954545974731,0.6011954545974731,-0.7991020083427429,815,270)">
        <path fill="#77ff00" fill-opacity="1"
          d=" M-141.7050018310547,15.758999824523926 C-141.7050018310547,15.758999824523926 -133.95799255371094,48.849998474121094 -133.95799255371094,48.849998474121094 C-133.95799255371094,48.849998474121094 -96.77200317382812,46.60499954223633 -96.77200317382812,46.60499954223633 C-91.37000274658203,57.59700012207031 -84.0459976196289,67.74600219726562 -74.9260025024414,76.5 C-74.9260025024414,76.5 -89.0719985961914,111.37699890136719 -89.0719985961914,111.37699890136719 C-89.0719985961914,111.37699890136719 -60.20399856567383,129.29200744628906 -60.20399856567383,129.29200744628906 C-60.20399856567383,129.29200744628906 -34.95600128173828,100.7979965209961 -34.95600128173828,100.7979965209961 C-23.267000198364258,104.76300048828125 -11.17199993133545,106.60099792480469 0.8109999895095825,106.42900085449219 C0.8109999895095825,106.42900085449219 15.73799991607666,141.75 15.73799991607666,141.75 C15.73799991607666,141.75 48.819000244140625,133.9980010986328 48.819000244140625,133.9980010986328 C48.819000244140625,133.9980010986328 46.500999450683594,95.52300262451172 46.500999450683594,95.52300262451172 C57.16600036621094,90.31700134277344 67.04399871826172,83.30799865722656 75.63099670410156,74.6050033569336 C75.63099670410156,74.6050033569336 111.3290023803711,89.08999633789062 111.3290023803711,89.08999633789062 C111.3290023803711,89.08999633789062 129.24200439453125,60.209999084472656 129.24200439453125,60.209999084472656 C129.24200439453125,60.209999084472656 100.54299926757812,34.76499938964844 100.54299926757812,34.76499938964844 C104.6500015258789,23.121999740600586 106.63300323486328,11.057000160217285 106.61199951171875,-0.9150000214576721 C106.61199951171875,-0.9150000214576721 141.7050018310547,-15.758000373840332 141.7050018310547,-15.758000373840332 C141.7050018310547,-15.758000373840332 133.95799255371094,-48.847999572753906 133.95799255371094,-48.847999572753906 C133.95799255371094,-48.847999572753906 96.36900329589844,-46.58100128173828 96.36900329589844,-46.58100128173828 C91.15399932861328,-57.66600036621094 84.01200103759766,-67.93599700927734 75.06199645996094,-76.83499908447266 C75.06199645996094,-76.83499908447266 89.0719985961914,-111.375 89.0719985961914,-111.375 C89.0719985961914,-111.375 60.20199966430664,-129.29100036621094 60.20199966430664,-129.29100036621094 C60.20199966430664,-129.29100036621094 35.77299880981445,-101.72000122070312 35.77299880981445,-101.72000122070312 C23.625999450683594,-106.11499786376953 11.003999710083008,-108.18599700927734 -1.503999948501587,-108.06600189208984 C-1.503999948501587,-108.06600189208984 -15.73900032043457,-141.75 -15.73900032043457,-141.75 C-15.73900032043457,-141.75 -48.81800079345703,-133.9980010986328 -48.81800079345703,-133.9980010986328 C-48.81800079345703,-133.9980010986328 -46.632999420166016,-97.68099975585938 -46.632999420166016,-97.68099975585938 C-58.042999267578125,-92.26799774169922 -68.5780029296875,-84.7959976196289 -77.63600158691406,-75.41699981689453 C-77.63600158691406,-75.41699981689453 -111.3290023803711,-89.08899688720703 -111.3290023803711,-89.08899688720703 C-111.3290023803711,-89.08899688720703 -129.2429962158203,-60.20899963378906 -129.2429962158203,-60.20899963378906 C-129.2429962158203,-60.20899963378906 -101.90499877929688,-35.96900177001953 -101.90499877929688,-35.96900177001953 C-106.14800262451172,-23.766000747680664 -108.06600189208984,-11.107999801635742 -107.79399871826172,1.4160000085830688 C-107.79399871826172,1.4160000085830688 -141.7050018310547,15.758999824523926 -141.7050018310547,15.758999824523926z M-46.20600128173828,-29.1200008392334 C-30.57900047302246,-54.316001892089844 2.506999969482422,-62.06999969482422 27.694000244140625,-46.439998626708984 C52.880001068115234,-30.809999465942383 60.62799835205078,2.2860000133514404 45,27.483999252319336 C29.371999740600586,52.68000030517578 -3.7139999866485596,60.433998107910156 -28.900999069213867,44.80400085449219 C-54.084999084472656,29.173999786376953 -61.83399963378906,-3.9240000247955322 -46.20600128173828,-29.1200008392334z">
          <animateTransform attributeName="transform" attributeType="XML" type="rotate" from="360" to="0" dur="5s"
            repeatCount="indefinite" />
        </path>
      </g>
      <g opacity="1"
        transform="matrix(-0.7991020083427429,-0.6011954545974731,0.6011954545974731,-0.7991020083427429,600,120)">
        <path fill="#ff0000" fill-opacity="1"
          d=" M-141.7050018310547,15.758999824523926 C-141.7050018310547,15.758999824523926 -133.95799255371094,48.849998474121094 -133.95799255371094,48.849998474121094 C-133.95799255371094,48.849998474121094 -96.77200317382812,46.60499954223633 -96.77200317382812,46.60499954223633 C-91.37000274658203,57.59700012207031 -84.0459976196289,67.74600219726562 -74.9260025024414,76.5 C-74.9260025024414,76.5 -89.0719985961914,111.37699890136719 -89.0719985961914,111.37699890136719 C-89.0719985961914,111.37699890136719 -60.20399856567383,129.29200744628906 -60.20399856567383,129.29200744628906 C-60.20399856567383,129.29200744628906 -34.95600128173828,100.7979965209961 -34.95600128173828,100.7979965209961 C-23.267000198364258,104.76300048828125 -11.17199993133545,106.60099792480469 0.8109999895095825,106.42900085449219 C0.8109999895095825,106.42900085449219 15.73799991607666,141.75 15.73799991607666,141.75 C15.73799991607666,141.75 48.819000244140625,133.9980010986328 48.819000244140625,133.9980010986328 C48.819000244140625,133.9980010986328 46.500999450683594,95.52300262451172 46.500999450683594,95.52300262451172 C57.16600036621094,90.31700134277344 67.04399871826172,83.30799865722656 75.63099670410156,74.6050033569336 C75.63099670410156,74.6050033569336 111.3290023803711,89.08999633789062 111.3290023803711,89.08999633789062 C111.3290023803711,89.08999633789062 129.24200439453125,60.209999084472656 129.24200439453125,60.209999084472656 C129.24200439453125,60.209999084472656 100.54299926757812,34.76499938964844 100.54299926757812,34.76499938964844 C104.6500015258789,23.121999740600586 106.63300323486328,11.057000160217285 106.61199951171875,-0.9150000214576721 C106.61199951171875,-0.9150000214576721 141.7050018310547,-15.758000373840332 141.7050018310547,-15.758000373840332 C141.7050018310547,-15.758000373840332 133.95799255371094,-48.847999572753906 133.95799255371094,-48.847999572753906 C133.95799255371094,-48.847999572753906 96.36900329589844,-46.58100128173828 96.36900329589844,-46.58100128173828 C91.15399932861328,-57.66600036621094 84.01200103759766,-67.93599700927734 75.06199645996094,-76.83499908447266 C75.06199645996094,-76.83499908447266 89.0719985961914,-111.375 89.0719985961914,-111.375 C89.0719985961914,-111.375 60.20199966430664,-129.29100036621094 60.20199966430664,-129.29100036621094 C60.20199966430664,-129.29100036621094 35.77299880981445,-101.72000122070312 35.77299880981445,-101.72000122070312 C23.625999450683594,-106.11499786376953 11.003999710083008,-108.18599700927734 -1.503999948501587,-108.06600189208984 C-1.503999948501587,-108.06600189208984 -15.73900032043457,-141.75 -15.73900032043457,-141.75 C-15.73900032043457,-141.75 -48.81800079345703,-133.9980010986328 -48.81800079345703,-133.9980010986328 C-48.81800079345703,-133.9980010986328 -46.632999420166016,-97.68099975585938 -46.632999420166016,-97.68099975585938 C-58.042999267578125,-92.26799774169922 -68.5780029296875,-84.7959976196289 -77.63600158691406,-75.41699981689453 C-77.63600158691406,-75.41699981689453 -111.3290023803711,-89.08899688720703 -111.3290023803711,-89.08899688720703 C-111.3290023803711,-89.08899688720703 -129.2429962158203,-60.20899963378906 -129.2429962158203,-60.20899963378906 C-129.2429962158203,-60.20899963378906 -101.90499877929688,-35.96900177001953 -101.90499877929688,-35.96900177001953 C-106.14800262451172,-23.766000747680664 -108.06600189208984,-11.107999801635742 -107.79399871826172,1.4160000085830688 C-107.79399871826172,1.4160000085830688 -141.7050018310547,15.758999824523926 -141.7050018310547,15.758999824523926z M-46.20600128173828,-29.1200008392334 C-30.57900047302246,-54.316001892089844 2.506999969482422,-62.06999969482422 27.694000244140625,-46.439998626708984 C52.880001068115234,-30.809999465942383 60.62799835205078,2.2860000133514404 45,27.483999252319336 C29.371999740600586,52.68000030517578 -3.7139999866485596,60.433998107910156 -28.900999069213867,44.80400085449219 C-54.084999084472656,29.173999786376953 -61.83399963378906,-3.9240000247955322 -46.20600128173828,-29.1200008392334z">
          <animateTransform attributeName="transform" attributeType="XML" type="rotate" from="0" to="360" dur="5s"
            repeatCount="indefinite" />
        </path>
      </g>
    </g>
    <g transform="matrix(0.9176625609397888,-0.08774740248918533,0.08774740248918533,0.9176625609397888,850,1250)"
      opacity="1" style="display: block;">
      <g opacity="1" transform="matrix(1,0,0,1,78.09200286865234,78.4540023803711)">
        <path fill="rgb(206,137,6)" fill-opacity="1"
          d=" M-71.45800018310547,18.768999099731445 C-75.90699768066406,16.707000732421875 -77.84200286865234,11.430999755859375 -75.77999877929688,6.98199987411499 C-75.77999877929688,6.98199987411499 -43.33100128173828,-63.04199981689453 -43.33100128173828,-63.04199981689453 C-41.68000030517578,-66.6050033569336 -37.25699996948242,-68.06400299072266 -33.452999114990234,-66.3010025024414 C-33.452999114990234,-66.3010025024414 -26.868000030517578,-63.25 -26.868000030517578,-63.25 C-24.180999755859375,-62.00400161743164 -21.06100082397461,-62.33599853515625 -18.875999450683594,-64.0989990234375 C-18.875999450683594,-64.0989990234375 -16.131000518798828,-66.31500244140625 -16.131000518798828,-66.31500244140625 C-13.946000099182129,-68.0780029296875 -10.82699966430664,-68.40899658203125 -8.138999938964844,-67.16400146484375 C-8.138999938964844,-67.16400146484375 23.115999221801758,-52.68000030517578 23.115999221801758,-52.68000030517578 C25.552000045776367,-51.55099868774414 27.249000549316406,-49.301998138427734 27.577999114990234,-46.76300048828125 C27.577999114990234,-46.76300048828125 27.986000061035156,-43.61800003051758 27.986000061035156,-43.61800003051758 C28.315000534057617,-41.07899856567383 30.01099967956543,-38.83000183105469 32.448001861572266,-37.70100021362305 C32.448001861572266,-37.70100021362305 72.29199981689453,-19.23699951171875 72.29199981689453,-19.23699951171875 C76.09600067138672,-17.474000930786133 77.84200286865234,-13.156000137329102 76.19100189208984,-9.592000007629395 C76.19100189208984,-9.592000007629395 43.00199890136719,62.0260009765625 43.00199890136719,62.0260009765625 C40.941001892089844,66.4749984741211 35.66299819946289,68.41000366210938 31.214000701904297,66.3489990234375 C31.214000701904297,66.3489990234375 -71.45800018310547,18.768999099731445 -71.45800018310547,18.768999099731445z" />
      </g>
      <g opacity="1" transform="matrix(1,0,0,1,78.20500183105469,73.4520034790039)">
        <path fill="rgb(246,173,2)" fill-opacity="1"
          d=" M28.40399932861328,-34.52000045776367 C28.40399932861328,-34.52000045776367 3.0829999446868896,-46.31999969482422 3.0829999446868896,-46.31999969482422 C3.0829999446868896,-46.31999969482422 2.7809998989105225,-51.60499954223633 2.7809998989105225,-51.60499954223633 C2.5859999656677246,-55.03300094604492 0.3889999985694885,-58.15700149536133 -2.8910000324249268,-59.678001403808594 C-2.8910000324249268,-59.678001403808594 -27.66699981689453,-71.15899658203125 -27.66699981689453,-71.15899658203125 C-32.07600021362305,-73.2020034790039 -37.20199966430664,-71.51100158691406 -39.11600112915039,-67.38099670410156 C-39.11600112915039,-67.38099670410156 -40.45399856567383,-64.49199676513672 -40.45399856567383,-64.49199676513672 C-40.45399856567383,-64.49199676513672 -75.68900299072266,11.543999671936035 -75.68900299072266,11.543999671936035 C-77.86299896240234,16.236000061035156 -75.56400299072266,21.92099952697754 -70.55400085449219,24.243000030517578 C-70.55400085449219,24.243000030517578 30.083999633789062,70.87899780273438 30.083999633789062,70.87899780273438 C35.09400177001953,73.20099639892578 40.91999816894531,71.27899932861328 43.09400177001953,66.58699798583984 C43.09400177001953,66.58699798583984 76.37899780273438,-5.239999771118164 76.37899780273438,-5.239999771118164 C77.86399841308594,-8.444999694824219 76.47000122070312,-12.246000289916992 73.26599884033203,-13.730999946594238 C73.26599884033203,-13.730999946594238 28.40399932861328,-34.52000045776367 28.40399932861328,-34.52000045776367z" />
      </g>
      <g opacity="1" transform="matrix(1,0,0,1,82.25299835205078,76.69300079345703)">
        <path fill="rgb(254,254,254)" fill-opacity="1"
          d=" M11.508999824523926,20.63800048828125 C11.508999824523926,20.63800048828125 -23.187000274658203,4.560999870300293 -23.187000274658203,4.560999870300293 C-30.145000457763672,1.3370000123977661 -33.172000885009766,-6.920000076293945 -29.947999954223633,-13.878000259399414 C-29.947999954223633,-13.878000259399414 -29.947999954223633,-13.878999710083008 -29.947999954223633,-13.878999710083008 C-26.722999572753906,-20.836999893188477 -18.468000411987305,-23.86400032043457 -11.508999824523926,-20.639999389648438 C-11.508999824523926,-20.639999389648438 23.187000274658203,-4.561999797821045 23.187000274658203,-4.561999797821045 C30.145000457763672,-1.3370000123977661 33.172000885009766,6.918000221252441 29.947999954223633,13.876999855041504 C26.722999572753906,20.836000442504883 18.468000411987305,23.863000869750977 11.508999824523926,20.63800048828125z" />
      </g>
      <g opacity="1" transform="matrix(1,0,0,1,84.03900146484375,74.07499694824219)">
        <path fill="rgb(254,254,254)" fill-opacity="1"
          d=" M-18.447999954223633,-8.300999641418457 C-18.447999954223633,-8.300999641418457 18.447999954223633,8.300999641418457 18.447999954223633,8.300999641418457" />
      </g>
      <g opacity="1" transform="matrix(1,0,0,1,84.03900146484375,74.07499694824219)">
        <path stroke-linecap="round" stroke-linejoin="miter" fill-opacity="0" stroke-miterlimit="10" stroke="#ff8800"
          stroke-opacity="1" stroke-width="4"
          d=" M-18.447999954223633,-8.300999641418457 C-18.447999954223633,-8.300999641418457 18.447999954223633,8.300999641418457 18.447999954223633,8.300999641418457" />
      </g>
      <g opacity="1" transform="matrix(1,0,0,1,81.22000122070312,81.13200378417969)">
        <path fill="rgb(254,254,254)" fill-opacity="1"
          d=" M-18.447999954223633,-8.300999641418457 C-18.447999954223633,-8.300999641418457 18.447999954223633,8.300999641418457 18.447999954223633,8.300999641418457" />
      </g>
      <g opacity="1" transform="matrix(1,0,0,1,81.22000122070312,81.13200378417969)">
        <path stroke-linecap="round" stroke-linejoin="miter" fill-opacity="0" stroke-miterlimit="10" stroke="#448822"
          stroke-opacity="1" stroke-width="4"
          d=" M-18.447999954223633,-8.300999641418457 C-18.447999954223633,-8.300999641418457 18.447999954223633,8.300999641418457 18.447999954223633,8.300999641418457" />
      </g>
    </g>
  </g>
</svg>